<svg xmlns="http://www.w3.org/2000/svg" viewBox="0 0 1254 1254"><path stroke="#000" d="m565.5 356 19.5.5-19.5.5zm54 0 16.5.5-16.5.5zm-70 1 8.5.5-8.5.5zm97 0 3.5.5-3.5.5zm-117 1 12.5.5-12.5.5zm129 0 7.5.5-7.5.5zm-140 1 9.5.5-9.5.5zm149 0 5.5.5-5.5.5zm-160 1 9.5.5-9.5.5zm167 0 5.5.5-5.5.5zm-176 1 7.5.5-7.5.5zm183 0 3.5.5-3.5.5zm-190 1 4.5.5-4.5.5zm-13 1 8.5.5-8.5.5zm214 0 2.5.5-2.5.5zm-221 1 5.5.5-5.5.5zm225 0 6.5 1.5-2.5.5-4-1zm-234 1 7.5.5-12.5 1.5v-1zm-10 2 2.5.5-2.5.5zm-10 1 5.5.5-5.5.5zm-5 1 3.5.5-3.5.5zm-8 1 5.5.5-5.5.5zm287 0 3.5 1.5-1.5.5zm-292 1 3.5.5-3.5.5zm-5 1 2.5.5-2.5.5zm-7 1 4.5.5-4.5.5zm-5 1 3.5.5-3.5.5zm-7 1 4.5.5-8.5 1.5v-1zm328 0 3.5 2.5-1.5-.5zm-336 2 2.5.5-2.5.5zm-6 1 2.5.5-2.5.5zm-10 2 3.5.5-10.5 2.5v-1zm366 3 1 2zm-385 2 2.5.5-2.5.5zm236 0 23.5.5-23.5.5zm152 0 1 2zm-183 1 10.5.5-10.5.5zm68 0 8.5.5-8.5.5zm-280 1 2.5.5-4.5 1.5v-1zm195 0 5.5.5-5.5.5zm105 0 2.5.5-2.5.5zm98 0 9.5 8.5-5.5-4.5zm-216 1 3.5.5-3.5.5zm-11 1 3.5.5-3.5.5zm-11 1 4.5.5-4.5.5zm-9 1 2.5.5-2.5.5zm-10 1 3.5.5-3.5.5zm-8 1 2.5.5-2.5.5zm-159 4 1.5.5-3.5 1.5v-1zm-10 5 1.5.5-2.5 1.5zm-3 2-1 2zm455 0 7.5 8.5-4-3zm-460 3-2 3-3 2 2-3zm-7 5-2 3zm74 0 2.5.5-2.5.5zm357 0 3 4zm44 2 1 2zm-479 1-4 5zm441 2 6 7zm40 0 1 2zm2 3 3.5 4.5-2-1zm-493 4-.5 1.5-9.5 11.5 1.5-2.5zm460 3 2 3zm38 1 3.5 5.5-2-1zm-458 3-1 2zm424 1 1 2zm-427 1-1 2zm-4 3-1 2zm-44 2-2.5 3.5-1.5 2.5.5-1.5zm41 0-5 6zm474 1 3.5 8.5h-1zm-34 2 2.5 3.5-2-1zm-486 4-1 2zm-2 3-.5 1.5-3.5 6.5.5-1.5zm38 0-4 5zm454 0 4.5 8.5h-1zm-460 7-1 2zm497 1 1.5 3.5h-1zm-534 1-.5 1.5-3.5 8.5-.5-1.5zm31 7-1 2zm-36 4 .5 1.5-2.5 5.5-.5-2.5zm543 0 1.5 4.5h-1zm-546 8 .5 1.5-1.5 4.5-.5-3.5zm30 6 .5 1.5-2.5 6.5-.5-2.5zm-32 1 .5 2.5-1.5 3.5-.5-3.5zm522 3 .5 2.5h-1zm32 3 1.5 3.5-2-1zm-556 1 .5 2.5-2.5 5.5.5-1.5zm30 4 .5 3.5-2.5 9.5-.5-4.5zm496 0 1.5 5.5h-1zm32 4 .5 2.5h-1zm-30 3 .5 3.5h-1zm31 1 .5 3.5h-1zm-562 2 .5 2.5h-1zm532 2 1.5 5.5h-1zm31 1 .5 3.5h-1zm-533 1 .5 4.5h-1zm-31 1 .5 4.5-2 1zm565 3 .5 2.5h-1zm-535 2 .5 5.5h-1zm505 1 .5 3.5h-1zm-536 1 .5 4.5h-1zm30 6 .5 6.5h-1zm538 1 .5 2.5h-1zm-569 1 .5 7.5-1.5 2.5-.5-2.5zm539 2 .5 3.5h-1zm31 1 .5 3.5h-1zm-30 4 .5 2.5h-1zm-510 1 .5 6.5h-1zm373 3 2.5.5-2.5.5zm168 0 .5 2.5h-1zm-572 1 .5 11.5h-1zm399 0 2.5.5-2.5.5zm10 0 2.5.5-2.5.5zm-13 1 1.5.5-4.5 2.5 1-2zm146 0 .5 3.5h-1zm-125 2 1 2zm-26 1-3 4zm182 0 1.5 5.5h-1zm-543 3 .5 11.5h-1zm513 0 .5 2.5h-1zm-119 3 1 2zm150 1 .5 2.5h-1zm-148 2 1 2zm118 0 .5 4.5h-1zm31 4 .5 3.5h-1zm-369 1 10.5.5-10.5.5zm339 1 .5 5.5h-1zm-346 2-1 2zm24 0 1 2zm353 2 .5 5.5h-1zm-577 2 .5 35.5h-1zm547 1 .5 5.5h-1zm-517 1 .5 32.5h-1zm201 1 1 2zm203 2 .5 2.5h-1zm-201 1 1 2zm423 2 2.5.5-2.5.5zm18 0 2.5.5-2.5.5zm-96 1 .5 3.5h-1zm-143 1 .5 3.5h-1zm113 0 .5 5.5h-1zm101 0 2.5.5-5.5 2.5 1-2zm35 1 2.5 1.5-1.5-.5zm4 2 1 2zm-451 1 1.5 3.5h-1zm403 1-3 4zm-204 1 .5 21.5h-1zm-56 1 .5 2.5h-1zm199 0 .5 4.5h-1zm115 0 8 9zm-145 1 .5 7.5h-1zm-310 1 .5 2.5h-1zm396 0-2 3zm-395 4 .5 2.5h-1zm340 1 .5 9.5h-1zm51 0-2.5 3.5-.5 1.5-.5-1.5zm-390 3 .5 4.5h-1zm309 0 .5 7.5h-1zm153 0 1 2zm-76 3-.5 1.5-2.5 4.5.5-1.5zm78 0 2.5 5.5h-1zm-519 1 .5 4.5h-1zm56 2 .5 7.5h-1zm427 0 2.5.5-2.5.5zm4 1 2.5 1.5-1.5-.5zm-92 1 .5 8.5h-1zm96 1 5 6zm-71 1 2.5.5q-7.9 1.6-11.5 7.5l5-6zm12 0 3.5.5-3.5.5zm-183 2 .5 3.5h-1zm274 1 .5 3.5h-1zm-164 2 4.5.5-4.5.5zm104 0-.5 1.5-2.5 6.5-.5-2.5zm-109 1 3.5.5-3.5.5zm-106 1 .5 2.5h-1zm-403 1 .5 14.5h-1zm679 0 .5 6.5h-1zm-125 1 2.5.5-2.5.5zm8 1 2.5.5-2.5.5zm-67 1-1 2-2 1 1-2zm159 0 .5 8.5h-1zm-443 3 .5 6.5h-1zm-241 2 1.5 30.5h-1zm517 0-1 2zm202 1 3.5 2.5-2.5-1.5zm-290 1-1 2zm-2 3-1 2zm84 0-2 3zm172 0 .5 3.5-1.5 2.5-.5-1.5zm-443 1 .5 3.5h-1zm406 0 2.5.5-2.5.5zm5 1 2.5.5-2.5.5zm75 0 2.5 3.5h-1zm-69 1 3.5.5-3.5.5zm-262 1 1 2zm267 0 4.5.5-4.5.5zm-155 1-2.5 3.5-3.5 5.5.5-1.5zm162 0 2.5.5-2.5.5zm4 0 3.5 1.5-2.5.5zm-642 1 .5 8.5h-1zm698 1 1.5 5.5h-1zm-177 5 6.5.5-6.5.5zm180 2 2.5.5-2.5.5zm-232 1-.5 1.5-2.5 5.5-.5-1.5zm236 0 2.5.5-2.5.5zm6 1 3.5.5-3.5.5zm-546 1 1 2zm38 1-5 6zm523 0 3.5 1.5-2.5.5zm-725 1 .5 9.5h-1zm501 1-6 7zm55 0 .5 3.5h-1zm-386 3 1 2zm294 0 .5 1.5-2.5 5.5-.5-1.5zm278 1 1 2zm-565 3 2.5.5-2.5.5zm11 0 2.5.5-2.5.5zm-6 1 4.5.5-4.5.5zm312 0-1 2zm254 0 5.5 4.5-4.5-3.5zm-778 1 .5 7.5h-1zm31 2 .5 8.5h-1zm460 0 .5 2.5h-1zm99 0 1 2zm-100 4 .5 2.5h-1zm108 1 3.5.5-3.5.5zm189 0 4 5zm-268 1 .5 2.5h-1zm85 0 3.5.5-3.5.5zm6 1 3.5.5-3.5.5zm-610 1 1.5 1.5v9h-1zm489 0 .5 2.5h-1zm127 0 3.5.5-3.5.5zm5 1 3.5.5-3.5.5zm-103 1 .5 2.5h-1zm109 0 3.5.5-3.5.5zm-595 1 .5 8.5h-1zm601 0 3.5.5-3.5.5zm90 0 3.5.5-3.5.5zm-235 1 .5 2.5h-1zm151 0 3.5.5-3.5.5zm89 0 3.5.5-3.5.5zm-83 1 3.5.5-3.5.5zm88 0 4.5.5-4.5.5zm60 0 1 2zm-276 1 .5 2.5-4.5 16.5-.5-3.5zm133 0 4.5.5-4.5.5zm68 0-5 6-3 1v-1q5.8-1.2 8-6Zm21 0 3.5.5-3.5.5zm-348 1 1 2zm265 0 4.5.5-4.5.5zm89 0 3.5.5-3.5.5zm-258 1 .5 2.5h-1zm175 0 4.5.5-4.5.5zm7 1 3.5.5-3.5.5zm6 1 3.5.5-3.5.5zm-309 1-1 2zm315 0 3.5.5-3.5.5zm77 0 1 2zm-272 1 .5 2.5h-1zm201 0 4.5.5-4.5.5zm-685 1 .5 4.5h-1zm31 0 .5 8.5h-1zm660 0 4.5.5-4.5.5zm68 0 4 5zm-507 1 4.5.5-4.5.5zm110 0-4 5zm335 0 5.5.5-5.5.5zm-435 2 7 8zm221 0 .5 2.5h-1zm-239 1-1.5 2.5-2.5 5.5-.5-1.5zm238 3 .5 3.5-1.5 3.5-.5-2.5zm-481 2 .5 6.5h-1zm353 0-3 4zm-322 1 .5 6.5h-1zm766 0 .5 2.5h-1zm-527 1 2 3zm239 2 .5 2.5h-1zm-271 1 .5 4.5h-1zm36 0 3.5 2.5-1.5-.5zm205 1 .5 2.5h-1zm319 1 .5 13.5h-1zm-797 1 .5 6.5h-1zm278 0 2.5 1.5-1.5-.5zm229 0 .5 2.5h-1zm-476 1 .5 6.5h-1zm354 0-1 2zm92 1 .5 2.5h-1zm291 0 .5 8.5h-1zm-530 2 1.5 2.5-2-1zm91 0 2.5.5-2.5.5zm177 0 .5 2.5h-1zm-215 1 2.5.5-2.5.5zm91 0-11 12zm-86 1 4.5.5-4.5.5zm24 0 2.5.5-2.5.5zm156 0 .5 3.5h-1zm-171 1 10.5.5-10.5.5zm200 1 .5 2.5h-1zm-504 1 .5 4.5h-1zm31 0 .5 5.5h-1zm443 2 .5 2.5h-1zm29 1 .5 2.5h-1zm263 1 .5 3.5h-1zm-293 2 .5 2.5h-1zm-472 1 .5 5.5h-1zm246 0 2 3zm255 0 .5 2.5h-1zm293 0 .5 2.5h-1zm-763 1 .5 4.5h-1zm336 0-2 3-5 3 1-2zm397 1 .5 2.5h-1zm-514 1 1 2zm221 0 .5 2.5h-1zm29 1 .5 3.5-1.5 4.5-.5-3.5zm-247 1 1 2zm540 0 .5 2.5h-1zm-30 1 .5 2.5h-1zm-507 1 1 2zm102 0-1 2-11 5v-1zm112 0 .5 2.5h-1zm-469 1 .5 3.5h-1zm31 0 .5 4.5h-1zm437 3 .5 2.5h-1zm-204 1 5.5 2.5-1.5.5-4-2zm233 1 .5 2.5-1.5 4.5-.5-3.5zm-496 1 .5 4.5h-1zm31 0 .5 4.5h-1zm310 0 1.5.5-7.5 2.5v-1zm125 1 .5 2.5h-1zm293 0 .5 2.5h-1zm30 0 .5 3.5-2.5 8.5-.5-3.5zm-516 1 5.5 1.5-2.5.5-3-1zm58 1 2.5.5-6.5 1.5v-1zm-51 1 2.5.5-2.5.5zm4 1 4.5.5-4.5.5zm37 0 4.5.5-4.5.5zm144 0 .5 3.5-2.5 8.5-.5-3.5zm-464 1 .5 4.5h-1zm31 0 .5 4.5h-1zm258 0 7.5.5-7.5.5zm23 0 6.5.5-6.5.5zm-12 1 8.5.5-8.5.5zm193 0 .5 2.5h-1zm-1 4 .5 2.5h-1zm-491 1 .5 4.5h-1zm31 1 .5 3.5h-1zm723 0 .5 3.5h-1zm30 1 .5 2.5h-1zm-294 1 .5 2.5h-1zm-30 3 .5 2.5h-1zm293 0 .5 2.5h-1zm-752 1 1.5 8.5h-1zm31 0 .5 2.5h-1zm457 0 .5 2.5h-1zm-30 3 .5 2.5h-1zm293 0 .5 2.5h-1zm-719 1 .5 3.5h-1zm455 0 .5 2.5h-1zm-30 3 .5 2.5h-1zm29 1 .5 2.5h-1zm294 0 .5 2.5h-1zm-778 2 1.5 7.5h-1zm31 0 .5 2.5h-1zm423 1 .5 2.5h-1zm293 0 .5 2.5h-1zm-264 1 .5 2.5h-1zm-451 2 .5 3.5h-1zm421 1 .5 2.5h-1zm293 0 .5 2.5h-1zm-264 1 .5 2.5h-1zm-449 3 .5 2.5h-1zm419 0 .5 2.5h-1zm-450 1 .5 2.5h-1zm479 0 .5 3.5h-1zm-447 3 1.5 5.5h-1zm417 0 .5 2.5h-1zm-449 1 2.5 4.5 1 7h-1zm772 0 .5 2.5-1.5 3.5-.5-2.5zm-294 1 .5 2.5h-1zm-30 2 .5 2.5h-1zm29 2 .5 2.5h-1zm-443 1 .5 2.5h-1zm413 1 .5 2.5h-1zm293 0 .5 2.5h-1zm-264 2 .5 2.5h-1zm-441 1 2.5 7.5h-1zm411 1 .5 3.5-1.5 3.5-.5-2.5zm324 0-.5 1.5-.5 2.5-.5-2.5zm-295 2 .5 2.5h-1zm260 1 2.5.5-2.5.5zm-4 1 2.5.5-2.5.5zm-726 1 3.5 11.5h-1l-3-8zm763 0 2.5 4.5-3-2zm-294 1 .5 3.5h-1zm-30 3 .5 2.5h-1zm275 0-1 2zm53 1 1 2zm-299 1 .5 2.5h-1zm243 0-1 2zm-273 2 .5 2.5h-1zm270 0-6 7zm63 1 6 7zm-304 1 .5 2.5h-1zm-30 2 .5 2.5h-1zm-400 1 1.5 2.5-2-1zm429 1 .5 2.5h-1zm-461 2 4.5 10.5-2-1-3-7zm431 0 .5 2.5h-1zm264 1-1 2zm-235 1 .5 3.5-3.5 11.5-.5-2.5zm313 0 1 2zm-343 2 .5 3.5-1.5 4.5-.5-3.5zm300 0 8.5.5-8.5.5zm-6 2 1.5.5-5.5 3.5 2-3zm21 1 1 2zm31 0 1 2zm-738 2 1 2zm652 1 .5 1.5-1.5 2.5-.5-1.5zm28 0-1.5 2.5-2.5 3.5 1.5-2.5zm-713 2 6.5 12.5-2-1-5-10zm773 0 1.5 4.5h-1zm-27 1 1 2zm-709 2 1 2zm2 3 3 4zm412 0 .5 3.5-4.5 16.5-.5-3.5zm231 0 .5 2.5h-1zm89 1 .5 3.5h-1zm-350 1 .5 2.5h-1zm329 0 1.5 4.5h-1zm-44 1 .5 8.5h-1zm69 0 1.5 10.5h-1zm-94 1 .5 4.5-1.5 8.5-.5-7.5zm-261 2 .5 3.5-1.5 4.5-.5-3.5zm-375 1 3 4zm-38 1 7.5 10.5-3-2zm745 2 .5 14.5h-1zm-700 3 2 3zm655 0q2.3 1.8 1.5 6.5l-3 2q3-1 2-6zm-289 2 .5 2.5h-1zm358 0 .5 3.5h-1zm-719 2 1 2zm622 1-2 3zm-619 1 1 2zm357 0 .5 2.5h-1zm-402 1 2 3zm431 1 .5 2.5h-1zm330 0 .5 5.5h-1zm-100 1-.5 1.5-1.5 3.5-.5-1.5zm-260 1 .5 2.5h-1zm285 1-1 2zm-256 1 .5 3.5-2.5 8.5-.5-3.5zm-423 3 7 8zm675 0-1.5 2.5-1.5 3.5-.5-1.5zm78 1 .5 4.5h-1zm-25 3 .5 2.5h-1zm-371 2 2.5.5-2.5.5zm292 0 .5 3.5h-1zm22 1 .5 2.5h-1zm-662 1 4 5zm743 1 .5 2.5h-1zm-332 1 .5 2.5-1.5 4.5-.5-3.5zm228 1 .5 4.5h-1zm23 2 1.5 4.5-2-1zm80 0 .5 2.5h-1zm-733 2 2 3zm128 2 3.5.5-3.5.5zm109 0 3.5.5-3.5.5zm392 0 1.5 12.5h-1q-2.4-4.9-.5-12.5Zm-479 1 6.5.5-6.5.5zm57 0 7.5.5-7.5.5zm193 0 .5 2.5h-1zm332 0 .5 2.5h-1zm-26 1 .5 2.5h-1zm-698 1 1 2zm391 2 .5 2.5h-1zm260 1 .5 2.5h-1zm-640 3 2.5 1.5-1.5.5zm379 0 .5 2.5h-1zm259 1 1.5.5-5 4-.5 1.5-.5-1.5zm-260 3 .5 2.5h-1zm232 1 1.5 16.5h-1q-2.8-6.3-.5-16.5Zm-267 2 3.5.5-3.5.5zm-4 1 2.5.5-2.5.5zm9 0 .5 2.5h-1zm29 0 .5 2.5h-1zm256 0 .5 6.5h-1zm75 0 .5 1.5-2.5 4.5-.5-1.5zm-28 2-1 2zm-333 2 .5 2.5h-1zm29 0 .5 2.5h-1zm-339 1 3.5.5-3.5.5zm6 1 2.5.5-2.5.5zm5 1 3.5.5-3.5.5zm8 1 2.5.5-2.5.5zm290 0 .5 2.5h-1zm29 0 .5 2.5h-1zm301 0-7 8zm-615 1 3.5.5-3.5.5zm215 0 7.5.5-7.5.5zm-10 1 8.5.5-8.5.5zm-10 1 8.5.5-8.5.5zm83 0 1.5 7.5h-1zm296 0 1 2zm68 0-.5 1.5-3.5 5.5 1.5-2.5zm-452 1 2.5.5-2.5.5zm123 0 .5 2.5h-1zm263 2 3 4zm-501 1 13.5.5-13.5.5zm31 0 12.5.5-12.5.5zm445 0 .5 2.5h-1zm-362 1 .5 3.5h-1zm123 0 .5 2.5h-1zm294 0-1 2zm-486 1 .5 13.5h-1zm461 1 5.5 2.5-2.5.5zm56 1-1 2zm-326 1 .5 2.5h-1zm285 0 2.5.5-2.5.5zm-8 1 5.5.5-5.5.5zm47 1-3 4zm-445 1 .5 3.5h-1zm-192 1-.5 1.5-2.5 5.5-.5-1.5zm312 0 .5 4.5h-1zm245 1 1 2zm3 4 6 7zm70 0-1 2zm-561 1-1 2zm558 2-1 2zm-560 1-1 2zm126 0 .5 13.5h-1zm-70 1 .5 6.5h-1zm501 0-3 4-1.5-.5zm-312 1 .5 3.5h-1zm-318 1 .5 1.5-1.5 2.5-.5-1.5zm624 2-1 2-1.5-.5zm-555 1-1 2zm550 1 1.5.5-10.5 4.5h-5v-1h5zm-552 2-2 3zm507 0 .5 2.5h-1zm-444 1 .5 3.5h-1zm-133 1 .5 2.5h-1zm576 2 .5 2.5h-1zm31 0-.5 1.5-.5 2.5-.5-2.5zm-541 1-1 2zm-67 1 .5 5.5h-1zm135 0 .5 2.5h-1zm192 0 1 2zm249 2 .5 2.5h-1zm30 1 .5 2.5-3.5 10.5-.5-2.5zm-543 1-7 8zm268 0 5.5 4.5-1.5-.5zm244 2 .5 2.5-2.5 7.5-.5-2.5zm-318 3 1 2zm36 2-1 2zm49 0 2.5.5-2.5.5zm-288 1-3 4zm86 0 1 2zm206 0 3.5.5-3.5.5zm-85 1 8.5 5.5-1.5.5q-5.5-1.8-7-6Zm39 0 1 2zm51 0 3.5.5-3.5.5zm-154 1-4 5zm159 0 4.5.5-4.5.5zm-67 1-1 2zm73 0 3.5.5-3.5.5zm-313 1-1 2-2 1 1-2zm319 0 3.5.5-3.5.5zm-223 1 2 3zm141 0-1 2-7 1v-1q5.7.7 8-2Zm87 0 4.5.5-4.5.5zm199 0 .5 2.5h-1zm29.5 0 2 .5-5.5 15.5-.5-1.5zm-298.5 1 1 2zm76 0 4.5.5-4.5.5zm-336 1 1.5.5-5.5 2.5v-1zm148 0-1 2-6 2v-1zm80 0 4.5.5-4.5.5zm114 0 9.5 1.5-4.5.5-5-1zm-378 1 1 2zm144 1 3.5 1.5-1.5.5zm245 0 4.5.5-4.5.5zm175 0 .5 1.5-1.5 2.5-.5-1.5zm-561 1 5.5 1.5-3.5.5zm296 0 5 6zm96 0 4.5.5-4.5.5zm-370 1 2.5.5-2.5.5zm124 0 2.5.5-2.5.5zm252 0 4.5.5-4.5.5zm-391 1 13.5.5-13.5.5zm143 0 5.5.5-5.5.5zm13 0 5.5.5-5.5.5zm241 0 3.5.5-3.5.5zm5 1 4.5.5-4.5.5zm6 1 3.5.5-3.5.5zm144 0-1 2zm-139 1 4.5.5-4.5.5zm-117 1 12.5 7.5-1.5.5-9-5zm123 0 3.5.5-3.5.5zm6 1 3.5.5-3.5.5zm5 1 4.5.5-4.5.5zm6 1 4.5.5-4.5.5zm6 1 3.5.5-3.5.5zm106 0-1 2zm-100 1 3.5.5-3.5.5zm5 1 4.5.5-4.5.5zm127 0 .5 1.5-3.5 6.5.5-1.5zm-121 1 9.5 1.5-4.5.5-5-1zm11 2 21.5 3.5-4.5.5-17-3zm-155 1 5.5 1.5-2.5.5-3-1zm227 0-2 3-2 1 1-2zm-220 2 3.5.5-3.5.5zm5 1 3.5.5-3.5.5zm166 0 4.5.5-4.5.5zm-161 1 3.5.5-3.5.5zm167 0 3.5.5-3.5.5zm36 0 1.5.5-3.5 1.5v-1zm-198 1 4.5.5-4.5.5zm167 0 4.5.5-4.5.5zm72 0-.5 1.5-4.5 6.5 1.5-2.5zm-233 1 4.5.5-4.5.5zm167 0 4.5.5-4.5.5zm-161 1 3.5.5-3.5.5zm167 0 11.5.5-11.5.5zm-162 1 4.5.5-4.5.5zm6 1 3.5.5-3.5.5zm5 1 4.5.5-4.5.5zm6 1 4.5.5-4.5.5zm6 1 9.5 1.5-4.5.5-5-1zm11 2 10.5 1.5-4.5.5q-1.3-2.2-6-1zm182 0-8 9zm-170 2 9.5 1.5-4.5.5-5-1zm11 2 4.5.5-4.5.5zm6 1 14.5 2.5-4.5.5-10-2zm17 3 9.5 1.5-4.5.5-5-1zm126 1-1 2zm-115 1 4.5.5-4.5.5zm6 1 26.5 4.5-4.5.5-22-4zm106 0-2 3-2 1 1-2zm-76 5 2.5.5-2.5.5zm67 0 1.5.5q-5.2 3.8-13.5 4.5v-1h3zm-63 1 3.5.5-3.5.5zm6 1 10.5 1.5-5.5.5-5-1zm12 2 4.5.5-4.5.5zm10 0 4 1 1.5-.5-.5 1.5h-7v-1zm8 1 2.5 1.5-3 .5zm8 0 4.5.5-4.5.5z" opacity=".976"/><path fill="#f4e5d5" stroke="#f4e5d5" d="m923.5 616 .5 3.5-1.5 5.5-3.5-2.5 2-.5zm-8 4 2.5 1.5-1.5.5zm92 54 2 3zm-38 113-2 3zm3 81-1 2zm-296 6 3.5 2.5-2 1q1.1-3.3-1.5-2.5zm-1.5 5q4.1-1.7 3 2.5l.5 1.5-1.5-.5 1 5h-3l1-4h-2zm-64.5 5 2.5.5-2.5.5zm-10 1 2.5.5-2.5.5zm-10 1 2.5.5-2.5.5zm-119 4 41.5.5-41.5.5zm304 3 2.5.5-2.5.5zm-262 2 .5 2.5h-1zm76 11h36l2.5 1.5-.5 1.5 1.5.5-1 2 3 6.5 2 .5-.5 1.5 1.5.5-.5 1.5 1.5.5-.5 1.5 1.5.5-.5 1.5 1.5.5v2l8.5 10.5 1.5-.5-.5 1.5 2 1 1.5-.5-.5 1.5 5 1 1.5-.5-.5 1.5 9.5-.5-.5-1.5 3 1v-2l2 1 2.5-1.5-.5-1.5 1 1 5.5-5.5q-2.2-1.3.5-2.5l2.5.5v2l2.5 4.5 1.5.5q-2.7 1.7 1.5 3.5l2.5 1.5-1 1 4.5 4.5 1.5-.5-.5 1.5q8.6 7.4 21 11l1.5-.5q-.8 2.6 2.5 1.5l1.5-.5-.5 1.5 4-1 .5 2 4.5-1v2l5-1v2q4.8 1.2 6-1v2l10 1 1.5-.5-.5 1.5q4.8 1.3 6-1v2q4.8 1.3 6-1v2l5-1v2q4.7 1.2 6-1v2l5-1v2q4.8 1.3 6-1v2q4.8 1.3 6-1v2l5-1 .5 2 5.5-1v2q4.7 1.2 6-1l.5 2 4.5-1 .5 2 5.5-1 4 2 2-1 2.5 1.5-14.5 4.5-33 3-8 2h-12l-10 2h-18l-1 1-24 1-1 1h-24l-1 1h-24l-1 1h-116l-1-1h-23l-1-1-30-1-1-1h-10l-1-1h-16l-10-2-19-1-8-2-18-1-30-6h-5l-34-8-23-9-8.5-7.5-1-7 4.5-7.5 3-2 20-10 29-8 16-2 10-3 .5 1.5-2 3q2.5 1.5 1 7l-1 3 1.5 3.5 1.5-.5-1 2h2l-1 1 6.5 6.5 2 1 1.5-.5q-.7 2.3 1.5 1.5l1.5-.5-.5 1.5 5-1v2l9.5-.5-.5-1.5 6 1v-2l3.5 1 .5-2 2 1 2.5-1 .5-2 1.5.5.5-1.5 1.5.5.5-1.5h2l1.5-.5-.5-1.5q1.3 2.3 2.5-.5l.5-1.5 1 1 4-4 1.5-.5-1-1 4.5-4.5 1.5.5 5-6-.5-1.5 3.5-2.5q-2.2-1.2.5-2.5l2.5-1.5-.5-1.5 1.5.5 1-2-.5-1.5h2l50-2 1-1 1 5 1-2 .5 1.5q-2.5 1.5-1 7l1.5 4.5 1.5-.5-1 3h2l-1 2 3.5 6.5 1.5-.5-1 1 3 3 1.5 2.5 6 4 1.5-.5-.5 1.5 2-1v2l4 1 1.5-.5q-.9 3 3.5 1.5l1.5-.5-.5 1.5 16.5-.5-2-1 1.5-.5 4.5 1 .5-2 3 1v-2l2 1q7.8-3.2 12.5-9.5l4-8-.5-1.5q2.6.8 1.5-2.5 2.3-1.2 1-6l-.5-1.5 1.5-.5V910l-2-.5zm368 2 1 2z" opacity=".976"/><path fill="#fde5c4" stroke="#fde5c4" d="m737.5 195-2 3zm-6 18 .5 2.5h-1zm-1 28 .5 3.5h-1zm38 1 .5 3.5h-1zm-38 4 .5 2.5h-1zm175 6 2.5.5-2.5.5zm12 3 1 2zm-24 2-1 2zm-126 13 .5 5.5h-1zm105 10-1 2zm-3 3-4 5zm-140 1 .5 5.5h-1zm191 1-1 2zm-20 21-1 2zm-138 9-2 3zm-28 1 1 2zm104 0-2 3zm-9 10-1 2zm49 3-1 2zm-20 21-1 2zm-299 5 4.5.5-4.5.5zm79 0 4.5.5-4.5.5zm-94 1 2.5.5-2.5.5zm285 0 1 2zm-300 1 2.5.5-2.5.5zm55 30 36.5.5-4 1 14.5.5 1-1h9v1l-1.5.5 8.5.5q1.2-2.2 6-1v1l-1.5.5 6.5.5 4-1v1l-1.5.5 5.5.5 3-1v1l-1.5.5 4.5.5 3-1v2l5-1v2l5-1v2l4-1v2l4-1v2l3-1 .5 2 2.5-1 1 2 2.5-1 .5 2 1.5-.5.5 1.5 2.5-1 .5 2 1.5-.5.5 1.5 2-1 3.5 2.5.5 1.5 1.5-.5.5 1.5 1.5-.5.5 1.5q1.2-2.2 2.5.5l.5 1.5q1.3-2.2 2.5.5l1.5 2.5q1.8-2.7 3.5 1.5l2.5 3.5 1-1 6.5 6.5q-2.7 1.8 1.5 3.5l3.5 2.5-.5 1.5 3.5 2.5-.5 1.5 2.5 1.5-.5 1.5 2.5 1.5 1 2-.5 1.5 2.5 1.5 2 4-1 2h2l-1 2h2l4 9q-2.5 1.5 1 3l1 2q-2.5 1.5 1 3l5 16-1 2.5q3-1.2 2 2.5l-1 2h2l-1 3 .5 1.5 1.5-.5 1 4v2l9 43 6 55.5-10.5 2q-1.5-2.5-3 1-18.3 4.7-28.5 17.5l-3.5 4.5-1.5.5q2.5 1.5-1 3l-1.5 2.5-1.5.5.5 1.5-1.5.5v2q.8 2.3-1.5 1.5l.5 1.5-1.5 3.5-1.5-.5 1 3h-2l1 3-1.5 3.5-1.5-.5 1 4h-2l1 4h-2l1 4h-2l1 5h-1l-.5-1.5-.5 2.5 1 3-1.5 3.5-1.5-.5 1 5-1.5 3.5-1.5-.5 1 4h-2l1 4h-2l1 5h-1l-.5-1.5-.5 3.5 1 2h-1l-.5-1.5-.5 3.5 1 2h-2l1 4h-2l1 4h-2l1 4h-2l1 4h-2l1 4h-2l1 5h-1l-.5-1.5-.5 2.5 1 3h-1l-.5-1.5-.5 2.5 1 3h-2l1 4h-2l1 4h-2l1 4h-2l1 4h-2l1 4h-2l1 4h-2l1 4h-2l1 4h-2l1 4h-2l1 4.5q-2.7-1.1-2 1.5l1 3h-2l1 4h-2l1 4h-2l1 4h-2l1 4h-2l1 4h-2l1 4h-2l1 4.5-2 .5 1 3.5q-2.7-1.1-2 1.5l1 2.5q-2.7-1.1-2 1.5l1 3h-2l1 4h-2l1 4h-2l1 4-1.5 1.5-16 3q-1.5-2.5-3 1l-16 2-1.5-.5q.9 3.4-4.5 1.5l-2-1v2l-16 2-3-1q-1 3-6 2l-2-1-2 2-29 2-1 1h-11l-1 1h-14l-1 1h-20l-1 1h-81l-1-1h-18l-1-1-22-1-1-1-14-1-26-5-19-6-13-6-20.5-15.5q-14.1-14.9-22-36l-5-16-7-31-3-24-2-7-2-23-1-1-2-30-1-1v-11l-1-1-1-32-1-1v-49l1-1v-16l1-1 .5-8.5 1 2 .5-3.5q-2.5-1.5-1-7h1l.5 1.5.5-3.5-1-5h1l.5 1.5.5-2.5-1-5h2l-1-2v-2l.5-1.5 1.5.5-1-4h2l-1-5 2.5-6.5 1.5.5-1-3h2l-1-3 1-2.5 2-.5-1-2 6.5-11.5 1.5-.5q-2.2-1.2.5-2.5l1.5-.5q-2.3-1.2.5-2.5l1.5-.5q-2.8-1.7 1.5-3.5l1.5-.5-1-1 4.5-4.5 5.5-4.5 4.5-5.5 1.5.5 2.5-3.5 1.5.5 1.5-2.5 22-11 1.5.5q-.7-2.2 1.5-1.5l2-1 1.5.5q-.7-2.2 1.5-1.5l1.5.5q-.7-2.2 1.5-1.5l1.5.5q-.7-2.2 1.5-1.5l1.5.5q-.8-2.6 2.5-1.5l3-1 1.5.5q-.7-2.2 1.5-1.5 1.5 2.5 3-1l3.5 1q-1.1-2.7 1.5-2l2.5 1q-1.1-2.7 1.5-2l3 1v-2l4 1v-2l4.5 1q-1.2-3 2.5-2l3 1v-2l5 1v-2l6 1v-1l-1.5-.5 2.5-.5 4 1v-2l5 1v-2l6 1v-2l6 1v-2l5 1 4-2 3.5 1q-1.3-3.3 3.5-2l3.5 1q-1.2-3 2.5-2l5 1v-2l8 1v-2l8 1v-1l-1.5-.5 2.5-.5q1.2 2.3 6 1v-2l9 1v-2l9 1v-2l11 1v-1l-1.5-.5 4.5-.5q1.2 2.3 6 1v-2l12 1v-1l-1.5-.5 5.5-.5 1 1h9v-1l-2.5-.5 7.5-.5 1 1h10v-2l30 1v-1h-7zM645 533v2l-3-1-1 2-2-1v2l-4 2-9 12q1 2-1 1v2q1 2-1 1v2q1 2-1 1v2l-2 10 1 23 3 11v1q2-1 1 2v1q2-1 1 2v2h2l-1 2h2l-1 2h2l-1 2 13 10q3-1 2 2l2-1q2-1 1 2l3-1 6 1v-2l3 1v-2l3 1v-1l3-2q10-7 12-22 3-2 1-3l1-4v-18l-1-1q-1-5 1-6l-2-1-3-13v-2l-2-1v-2l-9-13h-1l-3-2-2-2h-1l-5-1v-1zm-196 19v2l-12 6v2l-3 2v2h-1v2h-2l1 2h-1v2h-1v2q1 2-2 1l1 3-1 8-2 3 1 3q2 6-1 8l2 4q-2 6 1 8l-1 3q-1 2 2 1l1 5-1 2h2l-1 3h2l-1 2h2l-1 3h2q2 1 0 3h2l-1 2h2q4 2 1 4l14 8q12 2 19-3 10-7 13-21l1-5v-22l1-1v-3l-1 2q-2-18-10-29l-3-3 1-1-3-4-1 1q-4-5-10-6-8 2-11-1Zm39 49-1 11h1zm136 57-3 2h-2q1 2-1 1h-2l-7 11-9 9-1-1-2 3q-1 2-2 0l-1 2-1-1-1 2-1-1-1 2-1-1-1 2-1-1-1 2-2-1v2l-3-1v2l-4-1v2l-4-1v2l-4-1-6 1h2v1h-13l5-1v-1h-8l-1 1q-4 1-3-2l-4 1v-2l-3 1v-2l-3 1v-2l-3 1v-2l-2 1v-2l-2 1v-2l-2 1v-2l-2 1-2-2h-1l-2-2q-1-3-2-1l-7-7-4-2q-6 2-7-1-3-1-2 2l-2-1-1 2-1-1-1 2-5 4v2h-1v2q1 2-2 1l1 3-1 7h2l-1 2 2-1-1 2h2l-1 2 11 8 2 4 2-1 1 3 2-1 1 3 2-1 2 1 1 3 2-1v2l2-1 5 2v2l2-1 10 3v2l2-1 3 1h-1v1l3-1 4 1h-2v1l5-1 7 1h-4v1h21l-5-1v-1q6-2 8 1h4l-2-1v-1l4 1h3l-1-1v-1l3 1h2l-1-1v-1l4 1v-2l3 1v-2l3 1v-2l2 1 1-2 2 1-1-1 10-5h2v-1l6-4q2-4 4-2-1-3 2-2l10-12 4-3-1-1 5-8v-10l-6-9h-1l-2-1v-2l-2 1q-4 1-3-2zm333.5-266 3.5.5-3.5.5zm20 16 .5 3.5h-1zm-686 9-1 2zm683 4-1 2zm-694 7-1 2zm617 10 2.5.5-2.5.5zm-15 2 3.5.5-3.5.5zm-30 156 2.5.5-2.5.5zm67 3 3 4zm-677 33 .5 2.5h-1zm536 7-1 2zm186 26-3 4zm41 7 1 2zm5 5 1 2zm6 15 .5 3.5h-1zm-99 26 2.5.5-2.5.5zm7 0 3.5.5-3.5.5zm5 1 4.5.5-4.5.5zm7 1 3.5.5-3.5.5zm-24 1-2 3zm30 0 3.5.5-3.5.5zm8 3 1 2zm2 3 1.5 2.5h-1zm2 4 .5 5.5h-1zm-1 7 .5 2.5h-1zm-48 1 .5 2.5h-1zm-1 4 .5 2.5h-1zm48 0 .5 2.5h-1zm-49 4 .5 2.5h-1zm48 0 .5 2.5h-1zm-49 4 .5 2.5h-1zm48 0 .5 2.5h-1zm-1 5 .5 2.5h-1zm-49 4 .5 2.5h-1zm48 0 .5 2.5h-1zm-49 4 .5 2.5h-1zm48 0 .5 2.5h-1zm-49 4 .5 2.5h-1zm48 0 .5 2.5h-1zm-106 5 5.5.5-5.5.5zm105 0 .5 2.5h-1zm-97 1 2.5.5-2.5.5zm-13 1-4 5zm19 0 2.5.5-2.5.5zm5 1 3.5.5-3.5.5zm85 1 .5 2.5h-1zm-76 1 1 2zm75 3 .5 2.5h-1zm-71 1 1.5 2.5h-1zm22 3 .5 2.5h-1zm48 0 .5 2.5h-1zm-68 1 .5 5.5h-1zm67 3 .5 2.5h-1zm24 3-1 2zm-25 1 .5 2.5h-1zm-67 1 .5 2.5h-1zm126.5 5 4.5 1 3-1v2l4.5-1 .5 2 1.5-.5.5 1.5q1.2-2.2 2.5.5l2.5 3.5 2.5 1.5-.5 1.5 1.5.5-.5 1.5 1.5.5-.5 1.5q3-.9 1.5 3.5l1 1v19q-2.2 1.3-1 6l-2 3 1 2q-3.1 1.8-1.5 3.5-2.2-.7-1.5 1.5l.5 1.5q-2.2-.7-1.5 1.5l1 2-5 12.5-2 .5.5 1.5-1.5.5q2.2 1.3-.5 2.5l-1.5.5.5 1.5-2.5 1.5 1 1-6.5 6.5q-1.3-2.3-2.5.5l-.5 1.5-1.5-.5-.5 1.5-1.5-.5-.5 1.5-2.5-1-.5 2-1-1h-10l-3 1-2.5-1.5.5-1.5-2-1q-1.2 2.2-2.5-.5 2.3-1.2-.5-2.5l-1.5-.5 1-2h-2l1-3h-2l.5-6.5 1 2 .5-2.5-.5-1.5 3.5-2.5-.5-1.5 1.5.5q-.7-2.2 1.5-1.5l-.5-1.5q.7-6.2-3.5-7.5l-1.5-.5.5-1.5q-2.2.8-1.5-1.5l1-5-1-2.5 2-.5-1-2 3-2q-2.3-1.3.5-2.5l2.5-1.5 1.5-2.5 1.5.5.5-1.5 1.5.5 2.5-3.5 1.5.5-1-4 1-2h-2l1-3h-2l1-4-1-4h1l.5 1.5.5-2.5-.5-1.5q2.3.8 1.5-1.5l.5-2.5 4.5-3.5.5-1.5q1.3 2.3 2.5-.5l.5-1.5 2.5 1 .5-2 2.5 1zm-175.5 6 .5 2.5h-1zm65 1 .5 2.5h-1zm-1 4 .5 2.5h-1zm-19 1 .5 2.5h-1zm-102 2 6.5.5-6.5.5zm-3 1 1.5.5-2.5 1.5zm13 0 3.5.5-3.5.5zm6 1 2.5.5-2.5.5zm-22 1-1 2zm28 0 2.5.5-2.5.5zm145 2 .5 2.5h-1zm-137 1 1 2zm-40 3 .5 2.5h-1zm42 0 1.5 2.5h-1zm134 0 .5 2.5h-1zm20 3 .5 2.5h-1zm-197 1 .5 2.5h-1zm176 0 .5 2.5h-1zm-131 1 .5 3.5h-1zm83 0 .5 2.5h-1zm-129 3 .5 2.5h-1zm176 0 .5 2.5h-1zm-1 4 .5 2.5h-1zm-113 1 .5 2.5h-1zm-18 2 .5 2.5h-1zm64 0 .5 2.5h-1zm66 1 .5 2.5h-1zm-176 1 .5 2.5h-1zm109 2 .5 2.5h-1zm-110 2 .5 2.5h-1zm176 0 .5 2.5h-1zm-177 4 .5 2.5h-1zm176 0 .5 2.5h-1zm-1 4 .5 2.5h-1zm-176 1 .5 2.5h-1zm193 1 .5 2.5h-1zm-18 2 .5 2.5h-1zm-176 1 .5 2.5h-1zm175 3 .5 2.5h-1zm-176 1 .5 2.5h-1zm63 1 .5 2.5h-1zm65 0 .5 2.5h-1zm47 2 .5 2.5h-1zm-176 1 .5 2.5h-1zm196 2 .5 2.5h-1zm-22 5 .5 2.5h-1zm-176 2 .5 2.5h-1zm45 2 .5 2.5h-1zm130 0 .5 2.5h-1zm22 0 .5 4.5h-1zm-153 4 .5 2.5h-1zm-44 1 2.5 4.5-2-1zm-138 4 2.5.5-2.5.5zm181 0 .5 1.5-2 1zm130 0 .5 2.5h-1zm-332 2 3.5.5-4.5 1.5zm164 1 1 2zm36 1-2 3zm131 0 .5 2.5h-1zm-447 2-1 2zm43 0 .5 4.5h-1zm245 0 2.5.5-2.5.5zm6 1 2.5.5-2.5.5zm86 0 .5 2.5h-1zm-80 1 2.5.5-2.5.5zm146 0 .5 2.5h-1zm67 0 6.5.5-6.5.5zm-115 3 .5 4.5h-1zm-59 1 1 2zm40 0-1 2zm66 0 .5 2.5h-1zm115 1-1 2zm-211 3 2.5.5-2.5.5zm26 0-1 2zm-21 1 2.5.5-2.5.5zm90 0 .5 2.5h-1zm-208 1 .5 5.5h-1zm124 0 2.5.5-2.5.5zm6 1 3.5.5-3.5.5zm117 1 3 4zm-40 1 .5 1.5-2 1zm109 0-1 2zm-508 1 .5 3.5h-1zm360 2 2.5 1.5-1.5.5zm37 1-1 2zm-323 1 .5 6.5h-1zm291 0 2.5.5-2.5.5zm6 1 2.5.5-2.5.5zm23 0-1 2-1.5-.5zm-17 1 2.5.5-2.5.5zm5 1 3.5.5-3.5.5zm-446 9-1 2zm190 10 5 6zm-203 3-1 2zm144 1-4 5zm-53 4 1 2zm-139 2 1 2zm267 0 7.5.5-7.5.5zm33 3 3 4zm-287 2 7.5.5-7.5.5zm143 0 13.5.5-13.5.5zm151 4 1 2zm167 4 2.5.5-2.5.5zm23 4 2.5.5-2.5.5zm41 5 2.5.5-2.5.5zm40 14-1 2z" opacity=".992"/><path fill="#fdf6eb" stroke="#fdf6eb" d="m572.5 388 19.5.5-19.5.5zm45 0 14.5.5-14.5.5zm-66 1 10.5.5-10.5.5zm89 0 8.5.5-8.5.5zm-104 1 9.5.5-9.5.5zm117 0 6.5.5-6.5.5zm-129 1 7.5.5-7.5.5zm138 0 5.5.5-5.5.5zm-148 1 5.5.5-5.5.5zm155 0 4.5.5-4.5.5zm-165 1 6.5.5-6.5.5zm172 0 3.5.5-3.5.5zm-182 1 5.5.5-5.5.5zm187 0 2.5.5-2.5.5zm-196 1 5.5.5-5.5.5zm201 0 2.5.5-2.5.5zm-210 1 5.5.5-5.5.5zm214 0 2.5.5-2.5.5zm-221 1 5.5.5-5.5.5zm225 0 2.5.5-2.5.5zm-232 1 4.5.5-4.5.5zm-8 1 4.5.5-4.5.5zm-6 1 2.5.5-2.5.5zm-7 1 2.5.5-2.5.5zm-12 2 2.5.5-2.5.5zm-7 1 3.5.5-3.5.5zm-6 1 3.5.5-3.5.5zm-5 1 3.5.5-3.5.5zm-5 1 3.5.5-3.5.5zm-5 1 2.5.5-2.5.5zm320 0 1 2zm-325 1 2.5.5-2.5.5zm328 1 1 2zm-338 1 2.5.5-2.5.5zm-4 1 2.5.5-2.5.5zm345 0 1 2zm5 4 11 12zm13 14 1 2zm3 4 1 2zm2 3 1 2zm-433 2-1 2zm436 3 1 2zm-442 2-4 5zm446 5 2.5 4.5h-1zm-453 3-2 3zm-4 5-1 2zm-2 3-1 2zm-2 3-1 2zm-17 49 .5 2.5h-1zm-1 6 .5 3.5h-1zm-1 9 .5 3.5h-1zm368 6 6.5.5-6.5.5zm-9 3-1 2zm26 2 1 2zm-194 18 7 8zm-32 4-1 2zm-4 6-.5 1.5-.5 1.5-.5-1.5zm-6 22 .5 2.5h-1zm60 5 .5 2.5h-1zm418 3q14.2-1.2 18.5 7.5 3.2 4.3 3 12l-2.5 9.5-.5-4.5 1-4h-1l-2 5.5-2 .5 2 1-3.5.5-12-3-17.5-2 2-9.5q2.3-6.7 7.5-10.5zm-417 5 .5 10.5h-1zm143 16 1 2zm118 6-1 2zm-3 4-1 2zm-311 5 1 2zm360 1h8l27.5 5q-.2 12.5 8.5 17l9 3 17 2 29 6 12 1 6 2h6l25 5h10q8-2.5 12.5-8.5l1.5-2.5 27 4 6 2q8.2 3.3 12.5 10.5l3 6 1 13-14 60-4 14-1.5 1.5q-19.3 3.2-29.5 15.5l-10 17-3 11-1 11-4 5-4 10-2 9v20q-2.5 1.5-1 7l3 12 4 8 9.5 10.5 2.5 1.5-8 31q-3.5 9.5-10.5 15.5-7.8 7.3-23 7l-193-34q-9.2-2.8-14.5-9.5l-5-11v-11l27-107v-4l2-4v-4l16-62v-4l13-53q2.8-12.2 10.5-19.5l11-7zM918 718l-4 2-6 8-40 168q-1 6 2 9l6 5 21 4q10 2 14-3l4-6 5-26 35-142q1-8-3-11l-6-5-17-2-1-1zm-77 55-5 2q-5 3-7 10v4l-13 51-1 9-9 34q-1 9 2 13l7 4 15 2 6 2q6 1 9-2 5-2 6-8l3-17 21-84-1-9-7-7zm-73 40-6 3-5 7-12 51q-1 6 1 10l8 6 16 2 6 2 9-3 4-5 5-25 8-30q0-7-3-10l-7-5zM438.5 638l1 2zm185 20 3.5.5-3.5.5zm10 2 1 2zm98 0 .5 2.5h-1zm-1 4 .5 2.5h-1zm-1 4 .5 2.5h-1zm-216 7 5 6zm214 1 .5 2.5h-1zm-128 3-2 3zm-79 2 1 2zm75 1-1 2zm-72 1 8.5 4.5-1.5.5-6-3zm-39 7 2.5 5.5-2-1zm92 0 2.5.5-2.5.5zm-4 1 2.5.5-2.5.5zm-24 1 8.5.5-8.5.5zm15 0 5.5.5-5.5.5zm160 0 .5 2.5h-1zm-1 4 .5 3.5-1.5 4.5-.5-3.5zm-93 2-5 6zm91 7 .5 2.5h-1zm-100 1-2 3zm-120 3 1 2zm3 2 1 2zm3 2 1 2zm211 4 .5 2.5h-1zm-1 4 .5 2.5h-1zm-133 3 2.5.5-2.5.5zm-48 1 2.5.5-2.5.5zm43 0 3.5.5-3.5.5zm137 0 .5 2.5h-1zm-175 1 4.5.5-4.5.5zm32 0 4.5.5-4.5.5zm-24 1 21.5.5-21.5.5zm166 2 .5 2.5h-1zm-1 4 .5 2.5h-1zm-7 29 .5 2.5h-1zm-1 4 .5 2.5h-1zm-1 4 .5 2.5h-1zm-1 4 .5 2.5h-1zm-4 17 .5 2.5h-1zm-1 4 .5 2.5h-1zm-1 4 .5 2.5h-1zm310 1 2.5.5-2.5.5zm-14 2-1 2zm21 0 1 2zm-318 1 .5 2.5h-1zm294 1-3 4zm27 0 2 3zm-322 3 .5 2.5h-1z" opacity=".988"/><path fill="#fdf6eb" stroke="#fdf6eb" d="m986.5 809-.5 1.5-.5 1.5-.5-1.5zm-2 4 .5 2.5h-1zm-1 5 .5 2.5h-1zm1 4 2.5 6.5h-1q-3-2.5-1.5-6.5Zm-294 6 .5 2.5h-1zm295 2 .5 1.5-2 1zm-296 2 .5 2.5h-1zm287 5-1 2zm-2 3-1 2zm-348 7 2.5.5-2.5.5zm344 1 .5 4.5h-1zm2 9 2 3zm1 11-2 3zm-3 4 .5 2.5h-1zm-292 2 2.5.5-3 1 .5 2.5 1.5-.5-3.5 13.5-.5-3.5 2-8.5q-4.5-1.7-3 3.5l1 3h-1l-3-9zm292 5 1.5 4.5h-1zm39 0-1 2zm-396 5q6.1-1.2 5.5 1.5l8 21-1.5-.5h-36l-1 1-2.5-20 26.5-2zm359 1 5.5 4.5-1.5.5zm31 0-2 3zM470 891h42.5q1.3.3.5 6.5l1 1v13l3 14q3.8 10.7 12.5 16.5l9.5 4.5-1.5.5-13.5-8.5-8-13-3.5-18.5-1 1-50 2-2.5 2.5-2.5 3.5 1.5-2.5q7.7-10.1 12-22.5Zm512.5 0 10.5.5-10.5.5zm-393 19 .5 6.5h-1zm39 0 3.5 7.5h-1zm-173 7-3 4zm133 1 .5 5.5-1.5 3.5-.5-2.5zm-137 4-4.5 5.5-5.5 6.5-5 4 4-5 5.5-4.5zm185 5 10 12 9 4h9q9.4-2.6 14-10l-7 8q-5.2 4.4-16 3-10.9-3.1-16.5-11.5zm-50 1 .5 1.5q-3.2 7.8-9.5 12.5l-11 5v-1q10.1-2.4 15.5-9.5zm-205 2q1.6 9.9 9 14l2.5 1.5-1.5-.5-8.5-7.5zm299 3 3.5 5.5-2-1zm-246 5-2 3-2 1 1-2zm250 2 2 3zm-261 4 1.5.5-3.5 1.5v-1zm264 0q10.4 12.1 27.5 17.5l-1.5.5q-17.3-5.8-26-18Zm-293 2q6.6 2.9 16.5 2.5l-9.5.5-7-2zm23 0 2.5.5-7.5 1.5v-1zm123 1q7.9 2.6 20 1l4-1v1q-7.9 2.6-20 1l-4-1zm176 15 6.5 1.5-3.5.5-3-1zm8 2 70.5 12.5-4.5.5-29-6-33-5-4-1zm72 13 10.5 1.5-5.5.5-5-1zm12 2 3.5.5-3.5.5zm5 1 4.5.5-4.5.5zm7 1 2.5.5-2.5.5z" opacity=".988"/><path fill="#e17242" stroke="#e17242" d="m750.5 190 6 1 9.5 6.5 3 6v38l-1 4v2l-1 59q-2.1 8.3-8.5 12.5-4.8 4.2-15 3l-10.5-6q-6.3-7.9-4-25.5l1-1v-36l1-2-1-2 1-1v-32l1-1v-11l6-10.5 6.5-3q4.8 1.3 6-1Zm154 62 3 1 2-1q8.5 2.5 13.5 8.5 4.2 4.8 3 15l-3 7-24 25v1.5q-2.7-1.1-2 1.5L875.5 333q-2.2-.7-1.5 1.5l-14 14v1.5l-3 1.5-1.5 2.5q-2.2-.7-1.5 1.5-4.9 6.1-17.5 4.5l-10.5-6.5-3-5-1-10q1.3-6.7 5.5-10.5l2.5-1.5 12.5-14.5q2.3.8 1.5-1.5l26-27V282l3-1.5 23.5-25.5zm-340 103 9.5.5-9.5.5zm66 0 7.5.5-7.5.5zm-83 1 4.5.5-4.5.5zm102 0 4.5.5-4.5.5zm-117 1 4.5.5-4.5.5zm129 0 3.5.5-3.5.5zm-141 1 4.5.5-4.5.5zm149 0 3.5.5-3.5.5zm-160 1 2.5.5-2.5.5zm167 0 2.5.5-2.5.5zm-177 1 2.5.5-2.5.5zm-10 1 3.5.5-3.5.5zm-9 1 3.5.5-3.5.5zm-8 1 2.5.5-2.5.5zm-8 1 2.5.5-2.5.5zm-14 2 2.5.5-2.5.5zm-7 1 2.5.5-2.5.5zm-13 2 2.5.5-2.5.5zm-12 2 2.5.5-2.5.5zm330 15 1 2zm-176 1 11.5.5-11.5.5zm49 0 9.5.5-9.5.5zm-70 1 9.5.5-9.5.5zm91 0 5.5.5-5.5.5zm-105 1 5.5.5-5.5.5zm118 0 3.5.5-3.5.5zm97 0 1 2zm-227 1 4.5.5-4.5.5zm139 0 2.5.5-2.5.5zm-150 1 4.5.5-4.5.5zm157 0 2.5.5-2.5.5zm-167 1 4.5.5-4.5.5zm-9 1 3.5.5-3.5.5zm456 0h13l10.5 8.5q3.4 5.1 2 15l-6.5 9.5-10 4-15 1-6 2-14 1-21 4h-7l-7 2h-11q-6.7-2.2-10.5-7.5-4-4.5-3-14 2.1-8.3 8.5-12.5l8-3h7l14-3 28-3 13-3h2zm-465 1 3.5.5-3.5.5zm-9 1 3.5.5-3.5.5zm282 0 7 8zm-289 1 2.5.5-2.5.5zm-8 1 3.5.5-3.5.5zm-7 1 2.5.5-2.5.5zm-7 1 2.5.5-2.5.5zm-7 1 2.5.5-2.5.5zm-7 1 3.5.5-3.5.5zm-6 1 2.5.5-2.5.5zm-17 3 2.5.5-2.5.5zm360 3 1 2zm-44 3 1 2zm47 1 1 2zm-479 2-1 2zm436 0 3 4zm-442 5-8 9zm453 6 4 5zm5 6 1 2zm-470 1-2 3zm473 3 1 2zm-477 2-1 2zm45 0-1 2zm434 1 1 2zm-439 3-9 10zm-12 13-2 3zm-3 4-1 2zm-2 3-1 2zm-49 36 .5 2.5h-1zm530 5 .5 2.5h-1zm-498 2 .5 2.5h-1zm-1 6 .5 2.5h-1zm501 1 .5 2.5h-1zm-502 5 .5 3.5h-1zm503 0 .5 2.5h-1zm1 5 .5 2.5h-1zm-538 2 .5 2.5h-1zm33 2 .5 3.5h-1zm506 1 .5 2.5h-1zm-540 6 .5 4.5h-1zm541 0 .5 2.5h-1zm33 0 .5 2.5h-1zm-541 1 .5 4.5h-1zm370 1 5.5.5-5.5.5zm-4 1 2.5.5-2.5.5zm-7 4-4 5zm29 1 3 4zm122 3 .5 2.5h-1zm-511 3 .5 8.5h-1zm394 0 1 2zm-427 4 .5 7.5h-1zm545 0 .5 2.5h-1zm-337 3 2.5.5-2.5.5zm8 0 2.5.5-2.5.5zm9 3 1 2zm321 1 .5 2.5h-1zm-348 1-2 3zm31 1 2 3zm152 3 .5 2.5h-1zm166 2 .5 3.5h-1zm33 3 .5 2.5h-1zm84 0 6.5.5-6.5.5zm-284 2 .5 13.5h-1zm57 2 .5 2.5h-1zm111 1 .5 2.5h-1zm93 3-1 2zm-203 3 .5 4.5h-1zm199 0-5 6zm-88 2 .5 4.5h-1zm-363 6 .5 5.5h-1zm396 0 .5 2.5h-1zm-339 2 .5 2.5h-1zm138 2 .5 2.5h-1zm169 0 .5 4.5h-1zm-112 3 .5 3.5h-1zm-194 2 .5 3.5h-1zm420 0 6.5.5-6.5.5zm-81 2 .5 3.5h-1zm-397 1 .5 4.5h-1zm470 0-5 6zm-656 1 .5 11.5h-1zm711 1 .5 2.5h-1zm-160 1-1 2-2.5-.5zm-10 2 2.5.5-2.5.5zm-508 2 .5 10.5h-1zm679 0 .5 3.5h-1zm-525 3 .5 2.5h-1zm498 3 .5 4.5h-1zm-166 2-1 2zm-275 1 .5 4.5h-1zm271 2-6 7zm-125 1 1 2zm336 0 3 4zm-42 1 .5 2.5h-1zm-36 1 2.5.5-2.5.5zm6 1 2.5.5-2.5.5zm11 2 2.5.5-2.5.5zm18 0 .5 2.5h-1zm-649 2 .5 7.5h-1zm643 0 2.5.5-2.5.5zm-676 1 .5 6.5h-1zm505 1-1 2zm-99 3 7.5.5-7.5.5zm95 3-1 2zm54 0 3.5.5-3.5.5zm184 1 2.5.5-2.5.5zm-164 2 2.5.5-2.5.5zm-339 2-1 2zm-202 1 .5 6.5h-1zm554 0 .5 4.5h-1zm-390 1 3 4zm-197 4 .5 2.5h-1zm229 0-1 2zm299 3-1 2zm253 0 1 2zm-191 3 4 5zm-556 1 .5 5.5h-1zm752 0 4 5zm-295 3 .5 2.5h-1zm110 3 2.5.5-2.5.5zm5 1 2.5.5-2.5.5zm6 1 2.5.5-2.5.5zm-233 1 4.5.5-4.5.5zm239 0 2.5.5-2.5.5zm6 1 2.5.5-2.5.5zm-135 1 .5 2.5h-1zm-454 1 .5 4.5h-1zm337 0-3 4zm270 1 2.5.5-2.5.5zm80 0-1 2zm14 1 2.5.5-2.5.5zm-248 1 .5 2.5h-1zm254 0 2.5.5-2.5.5zm-740 2 .5 2.5h-1zm758 3 1 2zm-70 1 2.5.5-2.5.5zm-654 1 .5 4.5h-1zm660 0 2.5.5-2.5.5zm-447 1-1 2zm452 0 5.5.5-5.5.5zm-338 1-5 6zm402 0 1 2zm-762 1 .5 2.5h-1zm243 1-2 3zm239 1 .5 2.5h-1zm-211 3 1 2zm-237 1 .5 3.5h-1zm318 0-1 2zm-113 2 .5 2.5h-1zm-238 2 .5 2.5h-1zm479 0 .5 2.5h-1zm321 1 .5 2.5h-1zm-766 3 .5 3.5h-1zm204 0 .5 2.5h-1zm240 0 .5 2.5h-1zm-477 4 .5 2.5h-1zm300 0 3.5.5-3.5.5zm17 0 4.5.5-4.5.5zm67 0-2 3zm92 0 .5 2.5h-1zm-442 4 .5 4.5h-1zm206 0 8 9zm559 1 .5 2.5h-1zm-425 5-2 3zm-339 2 .5 3.5h-1zm216 2 1 2zm118 0-1 2zm-115 2 1 2zm112 0-1 2zm-330 2 .5 3.5h-1zm221 0 1 2zm106 0-1 2zm-101 3 1 2zm-225 4 .5 2.5h-1zm635 0 26 4 5.5 4.5q3.2 3.3 2 11l-31 126v4l-3 8-6 29-4.5 6.5-9 3-23-4-6.5-4.5q-3.3-3.7-2-12l39-164q1.5-6.5 6.5-9.5zm-388 5 2.5.5-2.5.5zm-246 1 .5 3.5h-1zm251 0 2.5.5-2.5.5zm40 0 2.5.5-2.5.5zm-34 1 3.5.5-3.5.5zm27 0 3.5.5-3.5.5zm-17 1 10.5.5-10.5.5zm163 0 .5 2.5h-1zm-429 4 .5 2.5h-1zm2 11 .5 2.5h-1zm-32 9 .5 2.5h-1zm483 9 .5 2.5h-1zm258 14-1 2-2.5-.5zm-159 1h8l12 3h5l7.5 4.5q3.3 3.7 2 12l-20 81-4 21-3.5 4.5q-3.5 4.5-13 3l-12-3h-5q-5.7-1.2-8.5-5.5-2.7-3.3-2-10l6-21v-4l18-73v-4l6.5-7.5zm196 9 5 6zm-62 1-7 8zm-9 10-1 2zm-656 6 1 2zm682 3-4 5zm27 0 3 4zm-703 6 1 2zm3 4 4 5zm449 1h10l17 3 5.5 4.5q3.2 3.3 2 11l-8 30-4 21-5.5 7.5q-3.3 2.7-10 2l-1-1-17-2-7.5-4.5-3-6v-3l13-55 4.5-5.5zm286 4 .5 2.5h-1zm-728 2 4 5zm630 0 .5 2.5h-1zm72 3 .5 9.5h-1zm-741 3 1 2zm46 0 1 2zm-43 4 1 2zm662 3-1 2zm-659 1 4 5zm685 2-3 4zm49 2 .5 2.5h-1zm-53 3-1 2zm-320 3 2.5.5-2.5.5zm-350 1 4 5zm344 0 2.5.5-2.5.5zm-13 2 2.5.5-2.5.5zm336 0 .5 6.5h-1zm-344 1 2.5.5-2.5.5zm-234 1 2.5.5-2.5.5zm226 0 2.5.5-2.5.5zm327 0 .5 2.5h-1zm-547 1 2.5.5-2.5.5zm211 0 3.5.5-3.5.5zm-299 1 1 2zm95 0 2.5.5-2.5.5zm194 0 5.5.5-5.5.5zm-187 1 3.5.5-3.5.5zm176 0 5.5.5-5.5.5zm-166 1 4.5.5-4.5.5zm154 0 4.5.5-4.5.5zm-142 1 4.5.5-4.5.5zm127 0 6.5.5-6.5.5zm-112 1 8.5.5-8.5.5zm91 0 8.5.5-8.5.5zm-66 1 47.5.5-47.5.5zm470 0 .5 9.5h-1zm28 1 4 5zm4 8-1 2zm-32 4 .5 3.5h-1zm68 9-1 2zm-68 2 .5 3.5h-1zm-331 3 4.5.5-4.5.5zm-10 1 4.5.5-4.5.5zm-10 1 5.5.5-5.5.5zm352 0 .5 2.5h-1zm27 0 1 2zm31 2-1 2zm-416 7 .5 2.5h-1zm446 0-1 2zm-518 4 .5 7.5h-1zm192 1 .5 2.5h-1zm322 0-5 6zm-441 2 .5 4.5h-1zm364 0 1 2zm-245 7 .5 2.5h-1zm252 0 3.5 4.5h-1zm-443 4 .5 3.5h-1zm-60 3-1 2zm61 3 .5 2.5h-1zm193 0 1 2zm250 0 .5 2.5h-1zm35 0 2.5.5-2.5.5zm-542 1-1 2zm135 0 .5 2.5h-1zm-205 2 .5 2.5h-1zm329 0 4 5zm247 1 .5 2.5h-1zm-510 2-10 11zm-66 5 .5 2.5h-1zm354 4 2.5.5-2.5.5zm-154 1-1 2zm160 0 2.5.5-2.5.5zm-219 1 4 5zm152 0-2 3zm72 0 2.5.5-2.5.5zm-312 1-1 2zm318 0 2.5.5-2.5.5zm11 2 2.5.5-2.5.5zm-378 1 2 3zm384 0 2.5.5-2.5.5zm-194 1-1 2zm200 0 2.5.5-2.5.5zm-123 1 2.5.5-2.5.5zm33 0 2 3zm96 0 2.5.5-2.5.5zm-250 1 2.5 1.5-1.5.5zm255 0 2.5.5-2.5.5zm6 1 2.5.5-2.5.5zm5 1 2.5.5-2.5.5zm6 1 2.5.5-2.5.5zm6 1 2.5.5-2.5.5zm5 1 2.5.5-2.5.5zm-122 1 2 3zm128 0 2.5.5-2.5.5zm6 1 2.5.5-2.5.5zm5 1 2.5.5-2.5.5zm117 0-1 2zm-111 1 2.5.5-2.5.5zm-140 1 1 2zm146 0 2.5.5-2.5.5zm5 1 2.5.5-2.5.5zm6 1 2.5.5-2.5.5zm91 0-4 5zm-86 1 2.5.5-2.5.5zm6 1 2.5.5-2.5.5zm6 1 2.5.5-2.5.5zm6 1 2.5.5-2.5.5zm5 1 2.5.5-2.5.5zm6 1 2.5.5-2.5.5zm5 1 2.5.5-2.5.5zm6 1 2.5.5-2.5.5zm6 1 2.5.5-2.5.5zm6 1 2.5.5-2.5.5zm-176 1 2.5.5-2.5.5zm183 0 6.5.5-6.5.5zm-166 3 2.5.5-2.5.5zm222 0-1 2zm-211 2 2.5.5-2.5.5zm11 2 2.5.5-2.5.5zm197 0-1 2zm-191 1 2.5.5-2.5.5zm6 1 2.5.5-2.5.5zm11 2 2.5.5-2.5.5zm6 1 2.5.5-2.5.5zm11 2 2.5.5-2.5.5zm11 2 2.5.5-2.5.5zm136 1-1 2zm-4 3-1 2zm-86 4 2.5.5-2.5.5zm23 4 2.5.5-2.5.5zm12 2 2.5.5-2.5.5zm8 1 14.5.5-14.5.5z" opacity=".976"/><path fill="#050808" stroke="#050808" d="M590.5 355h20l7 2 1.5-.5.5 1.5h17v-2l9.5 1.5-.5 1.5 6.5-.5-2-1 3.5-.5 8 3 5-2 2 3q4.3.8 5-2l.5 2 6.5-1 .5 2 4.5-1 3 2 2-1 4 2 1.5-.5q-.9 3 3.5 1.5 1.5 3.5 3 1l2 1 2.5-1 .5 2 1-1 3.5 2.5.5-1.5.5 2q3.7-1.5 3 1.5l4 1 .5-1.5.5 3 4.5 1 1-1 4 4 2-1 1 2 1.5-.5q-.7 2.3 1.5 1.5l3.5 1.5-.5 1.5 2-1 .5 3 5.5 2 10 9 1.5-.5q-.7 2.3 1.5 1.5l3.5 5q3-1.2 2 2.5l4.5 5.5 1.5-.5q-2.7 1.7 1.5 3.5l1.5.5q-2.2 1.3.5 2.5l2.5 1.5-.5 1.5 1.5.5q-2.5 1.5 1 3l1.5 2.5 1.5.5-.5 1.5 1.5.5v2l4 8.5 2 .5v2l2 7.5 2 .5-.5 1.5 1.5.5-.5 1.5 1.5.5-1 2.5 2 .5-1 2 3 4-1 2.5 2 .5-1 2.5 2 .5-1 3h2l-1 2.5 2 .5-1 2 2 3-1 2.5 2 .5-1 2.5q2.7-1.1 2 1.5l-1 2.5 2 .5-1 3q3.5 1.5 1 3l2 3-1 3.5 2 .5-1 4.5 2 .5-1 4.5 2 .5-1 3 2 3-1 2.5q3-1.2 2 2.5l-1 3.5 2 .5-1 4 2 4-1 3.5q2.7-1.1 2 1.5l-1 4h2l-1 2v2l2 5-1 4.5q2.7-1.1 2 1.5-2.2 1.3-1 6l2 5-1 4 2 4-1 5q3.5 1.5 1 3l.5 9.5 1.5-.5q-2.3 3.2-1 10 2 3.7 4 2-.8 2.6 2.5 1.5l2-1 6.5 2 6.5-8 8-4h6q.8 2.8 5 2l4.5-3.5 2-4-.5-1.5q2.3.8 1.5-1.5l3-3q-2.2-1.2.5-2.5l3.5-2.5 1.5-2.5 1 1 3-3q2.3.8 1.5-1.5h2l.5-1.5h2l4.5-1 .5-2 2.5 1 .5-2q2.5 4.5 5-1l6.5.5-4 1 6.5.5v-1l-1.5-.5 3.5-.5 4 3 2-1 2 1 1.5-.5q-.7 2.3 1.5 1.5l1.5-.5.5 2.5 1.5-.5.5 1.5 1-2 .5 3 2.5-1v2l2-1 3 5q2.3-.7 1.5 1.5l6 5 4 9.5 2 .5-1 2.5 2 .5-1 4.5 2 .5-1 1v6.5l3.5 1q1.5-2.5 3 1l2-1 5 4 1-1 3.5 3.5q-2.5 1.5 1 3-.7 2.3 1.5 1.5l-.5 1.5 1 5.5q3-1 2 2h2.5l1.5-.5q-.8 2.6 2.5 1.5l2-1q.8 2.8 5 2l2-1v2l2-1 2 1h4l5 2 1-1 2 2 1-1 8 4 3 2 1.5-.5.5 1.5q1.2-2.2 2.5.5-.7 2.3 1.5 1.5l5.5 4 .5 2q1.3-2.2 2.5.5l-1 1 4.5 4.5 1.5.5-.5 1.5 1.5.5q-2.2 1.3.5 2.5l1.5.5-.5 1.5 1.5.5-.5 1.5 1.5.5-1 2 1 3.5 2 .5-1 2 2 3-1 3.5q3-1.2 2 2.5l-1 1v13l1 2-2 4q2.5 1.5-1 3l1 3-2 3 1 2-2 2-2 11 .5 1.5q-2.6-.8-1.5 2.5l.5 1.5q-2.2-.7-1.5 1.5l1 2.5-2 .5v2l1 2-2 .5-1 4.5.5 3.5q-2.2-.7-1.5 1.5 2.5 1.5-1 3l1 2q-3.2 1.8-3 7l1 2.5q-2.7-1.1-2 1.5 2.5 1.5-1 3l-1 6 4 2 1.5 2.5q4-.5 4.5 2.5-2.7 1.8 1.5 3.5l1.5-.5-1 1 5 5-.5 1.5 1.5.5-.5 1.5 1.5.5q-2.5 1.5 1 3l1 2-1 3h2l-1 2 2 4q-2.5 1.5-1 7l2 5-1 4 1 2q-2.3 1.3-1 6l1 3h-2l1 6-2 4 .5 1.5q-2.6-.8-1.5 2.5 2.5 1.5-1 3l-1 5 .5 1.5q-2.2-.7-1.5 1.5l.5 1.5q-2.2-.7-1.5 1.5l.5 1.5-1.5.5q2.5 1.5-1 3l-1 3 .5 1.5-1.5-.5 1 2-2 1 .5 1.5q-2.2-.7-1.5 1.5l-5 7 .5 1.5-2.5 1.5.5 1.5-3.5 2.5q2.8 1.8-1.5 3.5-2.2-.7-1.5 1.5l-3.5 3.5q-1.2-2.2-2.5.5l-.5 1.5q-1.5-2.5-3 1-3.7-1.2-2.5 2.5l-2.5.5q-2.2-.7-1.5 1.5l-1.5-.5-7 3q-1.5-2.5-3 1l-3-1-2.5 1-2 5.5.5 1.5q-2.6-.8-1.5 2.5l-2 7 .5 1.5-1.5-.5 1 3-2 .5-1 6.5.5 1.5-1.5-.5-2 8 .5 1.5q-2.2-.7-1.5 1.5l.5 1.5-1.5-.5 1 2h-2l-1 3 .5 1.5-1.5.5.5 1.5-1.5-.5-1 2 .5 1.5-1.5-.5-2 3 .5 1.5-9.5 8.5-.5 1.5q-1.2-2.2-2.5.5l-1.5 2.5h-2l-1.5.5.5 1.5-1.5-.5-.5 1.5h-2l-2.5.5.5 1.5-2-1-3.5 1.5.5 1.5-3-1v2l-4.5-1q1.1 2.7-1.5 2l-5.5-1q1.4 3.7-4.5 2l-3-2-.5 2-5-.5 3-.5-.5-2-4 1h-2l-4.5 1q1.4-3.7-4.5-2l-2 1v-2q-4.7-1.2-6 1v-2l-6.5 1q1.3-3.3-3.5-2l-1.5.5q.8-2.6-2.5-1.5l-2 1q-1-3-6-2l-1.5.5.5-1.5q-4.8-1.3-6 1v-2q-4.7-1.2-6 1v-2l-5 1v-2l-5 1-.5-2-5.5 1-.5-2-5.5 1v-2l-5 1-2-2-9-1-1.5.5.5-1.5-5 1-.5-2-15.5-2-1.5.5q.9-3.4-4.5-1.5l-1.5.5.5-1.5q-4.7-1.3-6 1l-.5-2-5.5 1v-2l-5 1-.5-2-15.5-2-1.5.5q.6-2.7-5.5-1.5l-4-1-1.5.5q.9-3.4-4.5-1.5l-1.5.5q.6-2.7-5.5-1.5l-4-1-1.5.5q.9-3-3.5-1.5l-1.5.5q.9-3.4-4.5-1.5l-6-2-1.5.5q.8-2.2-1.5-1.5l-1.5.5-.5-1.5-1.5.5q.8-2.2-1.5-1.5l-11-7-1.5.5-5.5-6.5-2.5-1.5q2.3-1.3-.5-2.5l-1.5-.5.5-1.5-1.5-.5q2.5-1.5-1-3-.2-4.7-3.5-6.5l-6 10q-1.2-2.3-2.5.5l-.5 1.5h-2l-9 2-5-1-1.5.5q.8-2.2-1.5-1.5l-9.5-6.5-4-5-14-31v-2l-2-7-2-2q2.3-1.2-.5-2.5l-9.5-1-.5 2-6-2-3.5 1-.5 2-6-2-5 3-3-1-1.5 2.5v2q-.6 4.6 2 6l-1 4q3 1 2 6l-1 1v13l1 2-2 3 1 1-3 5q1.1 3.3-1.5 2.5v2l-5.5 4.5-.5 1.5h-2l-6.5 2-.5 2-2-1q-1.5 3.5-3 1l-12 1q-1.2-2.3-6-1l-1.5.5q.8-2.6-2.5-1.5l-1.5.5q.8-2.2-1.5-1.5l-8-5q-1.7 2.8-3.5-1.5l-1.5-3.5q-2.6.8-1.5-2.5l-3-4v-2q1.5-4.4-1.5-3.5l.5-1.5V916q-2.7 1.1-2-1.5 2.5-1.5 1-7l-2-3 1-1V890q-3.1.8-2.5-2h-12l-1 1h-14l-3-1h-13l-.5 2h-1.5q1.6 1.8-1.5 3.5l-9 16v2.5l-3 1.5-3 4v2.5l-3 1.5-1 3.5-9 7.5-.5 1.5-1-1-4 4-11.5 5-.5 2-2.5-1-.5 2-3-1-1 1h-14l-1 1-.5-2-6.5-1-5.5-3.5V937q-2.7 1.1-2-1.5l-1-3-1-2 1-2v-2q1.3-4.8-1-6l2-.5q2.1-13.2 9-22.5l-.5-1.5 1.5-.5-.5-1.5 1.5-.5-.5-1.5q2.3.8 1.5-1.5l2-3-.5-1.5q2.3.8 1.5-1.5l-1-2.5-6 1q1.3-3-2.5-2l-2 1q-1.4-2.6-6-2-1.5 2.5-3-1l-3 1-8-4-1 2-.5-2-3.5 1-2-2-1 1-4-2-5-2-1.5.5q.8-2.2-1.5-1.5l-1.5.5-.5-1.5-1.5.5-.5-1.5h-2l-4-2-1.5.5q.8-2.2-1.5-1.5l-2.5-.5V864h-4v-1.5h-2l-.5-1.5-1.5.5-1.5-2.5-1.5.5-.5-1.5-1.5.5q.8-2.2-1.5-1.5l-3-3q-1.3 2.3-2.5-.5.8-2.2-1.5-1.5l-4-4q-1.2 2.3-2.5-.5l-7.5-8.5-2.5-1.5q.8-2.2-1.5-1.5l-3-5-1.5-.5q2.5-1.5-1-3l-2.5-4.5-1.5.5v-2l-1.5-2.5-1.5-.5v-2l-5-11.5-2-.5v-2l-3-9.5-2-.5 1-2.5-2-.5 1-2-3-10.5-2-.5 1-2.5-2-.5 1-3-2-8-2-2 1-3q-3.5-1.5-1-3l-.5-2.5-1.5.5 1-5.5-2-.5 1-4-1-5-2-2 1-5.5-2-.5 1-5.5-2-.5 1-5q-3.5-1.5-1-3 .8-4.2-2-5l1-6.5q-2.7 1.1-2-1.5l1-5.5q-2.7 1.1-2-1.5l1-1V688l-2-.5q2.5-1.5 1-7l-2-4 1-5.5q-2.7 1.1-2-1.5l1-1v-9l-2-3q2.8-1.7 1-8l-2-3 1-1v-10h-2l1-1v-19q-3.4-6.1-2-17l1-1v-35l-1-1v-9q3.8-4.7 2-15l-1-2q3.4-2.6 2-10l-1-3.5q3.7 1.4 2-4.5-2.5-1.5 1-3l-1-5 2-4q-2.5-1.5 1-3l-1-3 2-2 1-6-.5-1.5q2.6.8 1.5-2.5l1-3-1-2h2l1-5-.5-1.5q2.6.8 1.5-2.5l2-4-.5-1.5q2.3.8 1.5-1.5l1-2-.5-1.5 1.5.5 2-5-.5-1.5 1.5-.5-.5-1.5 1.5.5 3-6-.5-1.5 2.5-1.5-.5-1.5 2.5-1.5 2-3q-2.2-1.2.5-2.5l2.5-1.5-.5-1.5 1.5.5 5-6-.5-1.5q1.3 2.3 2.5-.5l1-3.5q2.7 1.1 2-1.5 1.8-4.2 3.5-1.5l4.5-4.5.5-1.5q1.8 2.8 3.5-1.5l.5-1.5q1.5 2.5 3-1l5.5-3 .5-2q1.5 2.5 3-1l3.5-1 .5-2 1.5.5.5-1.5 1.5.5q-.9-3 3.5-1.5l2.5-1 .5-2h2l3-2 1.5.5.5-1.5h2l5.5-1 .5-2h2l2-1 1.5.5.5-1.5 1 2q1.1-2.7 4.5-2l.5-2 2 1 6-3 1 1 2.5-1.5.5 1.5 3-3 1 1 10-2 3-2 2.5 1 .5-2 3 1 3-2 3.5 1 .5-2 4 1 5-1 2-2q1.5 3.5 3 1 2.3.8 1.5-1.5l1.5.5h4.5q-1-3 2-2-1.1 2.7 1.5 2l3.5-2.5q-.8 2.6 2.5 1.5.8-2.8 5-2h2l3-2 4.5 1 .5-2 5 2q.5-3.5 5-3v2q4.5.5 5-3l.5 2 8.5-2 2 1 2.5-1 .5-2 6.5 1 .5-2 1 1h8.5q-1.3-3.3 3.5-2l5.5 1q-1.1-2.7 1.5-2l5 2 3.5-1 .5-2 6 2 4.5-1 .5-2q2.9 2.6 9 2 1.5-3.5 8-2l3 1 7-3h4q1.3 3.3 7 2 2.2-3.7 9-3l2 2h17l2-2zm3.5 30-9 2h-11l-1-1h-10l-2 2h-9l-1-1q-7-2-6 2h-8l-1-1q-5-1-5 2-5 1-6-1-5-1-6 2l-4-1q-6-2-5 2l-6-1-5 2-4-1q-5-1-5 2l-4-1-4 2-5-1q-2 3-7 2-2-3-3 1l-5-1q-2 3-7 2-2-3-3 1l-4-1-3 2-4-1q-3-1-2 2l-4-1q-2 3-6 2-2-3-3 1l-3-1-3 2q-5-1-6 1l-2-1-5 2q-2-2-3 1l-3-1-2 2-5 1-2-1-4 2q-2-2-3 1l-3-1-1 2-2-1q-3-1-2 2l-1-1q-4-1-3 2l-2-1q-1 3-5 2l-4 2-1-1q-3-1-2 2l-1-1-4 2-4 2-1-1-2 1q-2 3-3 1l-3 2q-4-1-3 2l-1-1-1 2-1-1-1 2-1-1-1 2-3 1q-3-1-2 2l-1-1-2 3-3 1q1 2-2 1l-2 3-1-1-6 7-4 3-5 5v2l-3 2v2h-2v3q-3-1-2 2-4 1-1 3h-2l-4 10v2h-2l-4 13 1 2h-2l-2 13 1 1q-4-1-2 5l1 1q-3-1-2 6 2 1-1 3-1 5 1 7l-2 3q-1 5 1 7l-2 4v11l1 1-2 8v32l2 7-1 4v14l2 3-1 2 1 11v11l2 2-1 1v8q3 1 1 3v8h2l-1 2v8h2l-1 2q-2 6 2 6l-1 2q-2 6 2 6l-1 2q-1 5 2 7l-1 5q3 1 1 3-2 5 2 4l-1 2 1 10 2 2-1 4q3 1 1 3l1 7q3 1 1 3l1 3q-2 5 2 4l-1 2q-1 3 2 2l-1 2 2 6q-2 4 2 3l-1 2 4 11q-1 3 2 2l-1 2h2l-1 2 6 11q-1 2 2 1-2 2 1 4-1 2 2 1l2 6 5 3 1 4q1 3 6 3l4 5q3-1 2 2l3 1q1 3 3 2-1 3 3 1v2h2q-1 2 2 1h2v2l2-1v2l2-1 3 2h2v2q2-2 4 1l1-1 5 3 2-1q1 3 3 1l14 4 18 3h2l14 2h2l20 1 3 2 4-1h9l9 2q5 2 7-1h49l1 1q7 1 10-2h19l1 1q4 1 3-2h11l2 1h2l3-2h11l1-1h8l1 1 3-2 18-1 9-2 4 1 3-2 5 1 2-2h6l7-2 3 1 4-2 3 1 8-3 3 1 2-2 13-2h2q-1-3 2-2l-1-3 2-1-1-3 2-1-1-3 2-1 3-14q-3-2 1-3l-1-2 2-1 1-4-1-4 2-1-1-3 2-1-1-3 2-1-1-3 2-1-1-3 2-2 3-12-1-3 2-1-1-3 2-1-1-3 2-1-1-3 2-1-1-3 2-1-1-3 2-1-1-3 2-1-1-3 2-1 1-4-1-4h2l-1-4 2-1-1-3 2-1-1-3 2-1-1-3 2-1-1-3 2-1-1-3 2-1-1-3 2-1-1-4 2-1-1-3 2-1 4-16-1-3 2-1-1-3 2-1-1-3 2-1-1-3 2-1-1-3 2-1v-3l6-14v-2l2-1 6-8q-1-4 2-3l2-3 6-4q-1-3 3-2v-1h2l2-1 3-3 1 1v-1h2l3-1q1-4 3-1l7-2h5l2-2-1-2-1-20q-4-2-1-3l-1-7v-2q1-7-1-6v-1l-1-11-2-3 1-3q-4-2-1-3l-1-5v-2l-1-7-2-2 1-3-1-2q2-6-1-5v-3l-2-6q2-6-1-5v-1l-1-5q-4-2-1-3 1-3-1-2v-1q1-4-1-3v-1q1-3-1-2v-1l-2-6v-2l-1-1v-1l-4-10q-4-2-1-3l-1-1v-1l-3-6q1-4-1-3v-1l-2-1v-1l-3-4q1-3-2-2v-3h-2l-1-4q-3 1-2-2l-3-3-2-3-6-7h-3l-3-5q-4 1-3-2h-3v-2h-3v-2l-17-7q-2-3-4-1 1-3-1-2h-4l-6-3-2 1q-3 1-2-2l-2 1-3-2-2 1q-4 1-3-2l-2 1q-5 1-5-2l-2 1-5-1h-2q-6 1-7-2l-3 1q-9 2-11-2h-8l-1 1q-9 2-13-2zm309 209v2l-1-1q-3-1-2 2h-3v2l-5 4q-4 4-5 11 2 1-1 3l1 3 3 1 3-1q2-1 1 2l4-1 3 2 4-1v2l10 1q1-3 3 1l3-1 4 1 2-3-1-4 2-1v-8l-1-1q1-4-1-3v-1l-1-1v-1l-5-6-1 1-2-3-2 1-1-2-3 1q-6 1-8-1Zm-107 37-4 2-1-1-4 2q-4-1-3 2h-2q1 2-3 1v2h-2l-7 8q-3 1-1 3-3-1-2 2v2h-1v2h-2l-1 5 1 3h-2l1 4-1-1-3 9 1 4h-2l1 4h-2l1 4h-2l1 4h-2l1 4h-2l1 4h-2l1 4h-2l1 4h-2l-1 5 1 4h-2l1 4h-2l1 4h-2l1 4h-2l1 4h-2l1 4h-2l1 4h-2l1 4h-2l1 4h-2l1 4h-2l1 4h-2l1 5h-2l1 4h-2l1 4h-2l1 4h-2l1 4h-2l1 5h-2l1 4h-2l1 4h-2l1 4h-2l-3 13 1 3h-2l-4 17 1 4h-2l1 4h-2l-2 13-8 29 1 3h-2l-1 5 1 3h-2l-1 5 1 3h-2l1 7v2l-1 3 1 4q-1 3 2 2v3q-1 2 2 1l-1 3 4 1 1 3 7 4h2v2l2-1v2l10 2 4-1v2l10 1q1-2 3 1l4-1v2l12 1 6 2 5-1v2l6-1v2l12 1 2 2 3-2 2 3 2-1 3 1 4-1v2l10 1q1-3 3 1l4-1v2l6-1v2l7 1 4-1 2 2q9 0 16 3l5-1v2l18 3 5-1 2 3 2-1 3 1 4-1v2l6-1v2l12 1 3 1 3-1q1-4 3-1l5-2q2 1 1-1h2l2-1 2-3 6-5v-3q3 1 2-1 3-2 1-3l2-1 1-2-1-2 2-1-1-3 2-1-1-3h2l1-6v-2q2 1 1-2v-2q2 1 1-2v-2q2 1 1-2-2-2 1-3l-1-3h-1l-1-1-8-7q1-3-2-4 1-3-1-2v-1l-2-3q1-5-1-4v-1q-3-6-1-16l-1-1 2-1q-2-4-1-12l-1-1 2-1-1-5 2-1-1-4 2-1-1-2 2-1 3-8 3-3-1-1 2-1v-7l1-1-1-5 2-1 3-12h2l-2-1 2-1 3-8 4-1 5-6q3 1 2-2h2l6-4 2 1 1-3 1 2 2-3v2l4-2 3 1 2-4v-2q2 1 1-2v-4l1-2v-2l2-3q-3-2 1-3l-1-3 2-1-1-3 2-1-1-3 2-1-1-3 2-1-1-3 2-1 1-5-1-2 3-8q-3-2 1-3l-1-2 2-4v-2q2 1 1-2v-2q2 1 1-3-2-2 1-3 1-7-1-10l-2-6q1-3-2-2l-2-5q-4-6-10-8h-2l-5-3-4 1-2-2-14-2-2 1q1-3-3-2h-2l-2 1v2l-8 6q-3-1-2 2l-1-1-3 2q-2-2-6-1l-2 1q1-4-4-2l-2 1q1-4-4-2-2 3-3-1l-4 1q-1-3-5-2-2 3-3-1l-4 1-2-2-21-3q-2 3-3-1l-4 1q-1-3-5-2-2 3-3-1l-4 1-2-2-5-1-4 1q-1-3-5-2-2 2-3-1l-4 1-2-2h-4l-6-2-1-3q-3 1-2-1-4-2-1-3l-2-8q-1-3-2-1l-4-2-2 1-4-1h-2l-4-1h-2l-4-1h-2q-3-3-9-2Zm204 166v2l-2-1-1 2-1-1-3 1v2l-1-1-2 3q-2 4-3 1l-3 5v2h-1v2h-2v9h2l-1 2 1 2q1 5-2 6-3-1-2 2h-2l-2 3-2 1-4 5 1 2h-2l1 4-1 6 3 1-1 2 4 1q2 1 0 3l1 3q-5 0-7 5l1 2h-2v7h2l-1 2q-1 2 2 1l-1 2 3 1-1 2 4 3 1-1v2l4 2 3-1v2q7 1 12-2 3 1 2-1h2v-1h2l1-2h2l7-7q-2-2 1-3 2 1 1-1 3-2 1-3l2-1-1-1 2-1-1-1 2-1v-2q2 1 1-2v-2l2-1v-2q3 1 1-3v-2l2-3v-4l2-3-1-3 2-1-1-1 1-2q-2-2 1-3v-14l-1-2v-2l-4-10-2-2-4-4q-1-3-2-1l-1-1q-2 1-3-2l-2 1v-1zm47 15-1 4h1zm-369 60-6 3q-3-1-2 2l2 1h-1l1 3-1 2h2l1 9 3 2 2-3q-3-2 1-3l-1-2q-1-3 2-2l1-6v-2q3 1 1-3z" opacity=".992"/><path fill="#050808" stroke="#050808" d="m645 535 4.5 1 1-1 3 3 1-1 2 1 1.5-.5q-.7 2.3 1.5 1.5 1.1 2.8 4.5 2-1.1 2.7 1.5 2l7.5 11.5v2l2 3-1 2.5 2 .5-1 2 3 6-1 4q3.5 1.5 1 3v22l-3 10 .5 1.5q-2.6-.8-1.5 2.5l-3 4 .5 1.5-2.5 1.5-2.5 3.5-3 2q-4.4 4.1-14 3l-3-1-4.5-1-.5-2-1.5.5-1.5-2.5-6.5-5.5q1.1-3.3-1.5-2.5v-2l-1.5-.5.5-1.5-1.5-.5v-2q1.1-3.3-1.5-2.5l-.5-2.5-1-2q2.5-1.5-1-3l1-2q-2.6-1.4-2-6 2.5-1.5-1-3l1-9-1-4 1-2v-2l-1-2 2-4-1-3 3-6v-2l1-4.5 2-.5-.5-1.5h1.5q-1.5-3.7 1.5-3l4-5h2l3.5-1 .5-2 3.5 1zm-196.5 20q10.3-1.2 15.5 1l.5 2 1.5-.5 1.5 2.5 2-1 7.5 10.5 1 4.5 2 .5-1 2q2.8 2 2 6.5l2 .5-1 3 1 1 1 14q2.6 2.9 2 9l-2 2v7l-2 7 .5 1.5q-2.6-.8-1.5 2.5l-.5 2.5-1.5.5.5 1.5q-2.2-.7-1.5 1.5l-6 7.5-15.5 4-6-3-1.5.5q.8-2.2-1.5-1.5l-7.5-5.5q2.2-1.2-.5-2.5-2.2.8-1.5-1.5l-3-4 .5-1.5-1.5-.5q2.5-1.5-1-3l-1-3 1-1-3-5 1-3-2-2-1-14 1-5q-2.5-1.5-1-7l2-3-1-3 4-12 6.5-8.5zm174 105q9.3-.2 13.5 4.5l1.5 2.5 1.5.5-.5 1.5 1.5.5-1 2q3.5 1.5 1 3l1 2-3 6 .5 1.5q-2.2-.7-1.5 1.5l-1 3.5-3 1.5q1.1 3.3-1.5 2.5-8.2 10.8-20.5 17.5l-.5 1.5h-2l-11.5 5-.5 2-2-1-6.5 2-.5 2-3-1-4.5 1-.5 2-5.5-1-.5 2q-1.5-2.5-7-1l-3 2-1-1h-10l-19-3-1.5.5q.8-2.6-2.5-1.5l-13-5-1.5.5-.5-1.5-1.5.5-.5-1.5-1.5.5q.8-2.2-1.5-1.5-1.7-3.1-3.5-1.5l-1.5-2.5-1.5.5-1.5-2.5-1.5.5-2.5-3.5H495q1.1-2.7-1.5-2l-4.5-4.5.5-1.5-1.5-.5v-2l-2-3 1-5q-2.5-1.5 1-3l1-3-.5-1.5 1.5.5 2.5-4.5 1.5.5.5-1.5q1.5 2.5 3-1l6 1h4l9 9 1.5-.5 2.5 3.5 1.5-.5 1.5 2.5 2 1 1.5-.5q-.7 2.3 1.5 1.5l2.5.5q-.7 2.3 1.5 1.5l1.5-.5q-.7 2.3 1.5 1.5l1.5-.5q-.7 2.3 1.5 1.5l1.5-.5q-.8 2.6 2.5 1.5 1.5-2.5 3 1l5-1q4.3 3.7 14 2l4-2 3 1 3-2 2 1 4.5-1 .5-2 2.5 1 .5-2 1.5.5.5-1.5h2l3.5-1 .5-2 1.5.5V685q3.8 1.5 3-1.5 2.5 1.8 5-3l2.5-3.5 5.5-4.5 2-3-.5-1.5h1.5v-3q3 1 2-2h2.5z" opacity=".992"/><path fill="#161816" stroke="#161816" d="m574.5 355 15.5.5-15.5.5zm37 0 18.5.5-18.5.5zm-59 1 7.5.5-7.5.5zm90 0 6.5.5-6.5.5zm-105 1 6.5.5-6.5.5zm29 0 17.5.5-17.5.5zm53 0 17.5.5-17.5.5zm35 0 6.5.5-6.5.5zm-129 1 3.5.5-3.5.5zm25 0 5.5.5-5.5.5zm95 0 6.5.5-6.5.5zm-133 1 4.5.5-4.5.5zm25 0 2.5.5-2.5.5zm-35 1 3.5.5-3.5.5zm20 0 4.5.5-4.5.5zm146 0 3.5.5-3.5.5zm-175 1 2.5.5-2.5.5zm17 0 2.5.5-2.5.5zm-26 1 2.5.5-2.5.5zm16 0 2.5.5-2.5.5zm-33 2 2.5.5-2.5.5zm-8 1 2.5.5-2.5.5zm-6 1 2.5.5-2.5.5zm-7 1 2.5.5-2.5.5zm11 0 3.5.5-3.5.5zm252 0 1.5.5-2.5 1.5zm-258 1 2.5.5-2.5.5zm-7 1 2.5.5-2.5.5zm-18 1 2.5.5-2.5.5zm-2 2 2.5.5-2.5.5zm299 0v2l2-1-1 2-3.5-1.5zm8 4-1 2zm4 2 1 2zm5 3-1 2zm3 2 1 2-2.5-.5zm3 2 1 2zm-161 1 34.5.5-34.5.5zm-24 1 10.5.5-10.5.5zm70 0 9.5.5-9.5.5zm-86 1 5.5.5-5.5.5zm103 0 5.5.5-5.5.5zm102 0 1 2zm-219 1 5.5.5-5.5.5zm128 0 3.5.5-3.5.5zm-140 1 5.5.5-5.5.5zm148 0 2.5.5-2.5.5zm-157 1 3.5.5-3.5.5zm244 0 3 4zm-255 1 4.5.5-4.5.5zm180 0 2.5.5-2.5.5zm-189 1 4.5.5-4.5.5zm-8 1 3.5.5-3.5.5zm-8 1 2.5.5-2.5.5zm-7 1 2.5.5-2.5.5zm-8 1 2.5.5-2.5.5zm-7 1 2.5.5-2.5.5zm-7 1 2.5.5-2.5.5zm-25 4 2.5.5-2.5.5zm346 0 4 5zm-352 1 2.5.5-2.5.5zm358 6 1 2zm-474 2-1 2zm431 0 1 2zm46 2 1 2zm-482 2-2 3zm442 1 7 8zm44 3 1 2zm2 3 1 2zm-500 5-3 4zm503 0 1 2zm2 3 3.5 6.5-2-1zm-37 2 1 2zm-474 2-1 2zm-3 4-1 2zm43 0-1 2zm-45 3-1 2zm-2 3-1 2zm491 1-1 2zm1 2-1 2zm-457 3-2 3zm-39 1-1 2zm-14 34 .5 2.5h-1zm-1 4 .5 2.5h-1zm559 4 .5 2.5h-1zm-561 6 .5 2.5h-1zm-1 5 .5 2.5h-1zm565 3 .5 2.5h-1zm-566 2 .5 3.5h-1zm567 3 .5 2.5h-1zm-568 4 .5 3.5h-1zm32 4 .5 3.5h-1zm538 2 .5 2.5h-1zm-571 3 .5 3.5h-1zm572 2 .5 3.5h-1zm-31 7 .5 2.5h-1zm32 0 .5 2.5h-1zm-574 2 .5 13.5h-1zm416 0 1 2zm3 2 1 2zm-387 3 .5 3.5h-1zm512 5 .5 2.5h-1zm32 0 .5 3.5h-1zm-366 6 4.5.5-4.5.5zm335 1 .5 2.5h-1zm32 0 .5 2.5h-1zm-546 2 .5 45.5h-1zm192 0-1 2zm-24 1-1 2zm-200 1 .5 40.5h-1zm225 0 2.5.5-.5 2.5zm-30 4-1 2zm384 0 .5 4.5h-1zm-347 1 1 2zm149 2 .5 2.5h-1zm-147 1 1 2zm439 2 2.5.5-2.5.5zm-125 1 .5 2.5h-1zm116 0 6.5.5-6.5.5zm-84 1 .5 5.5h-1zm63 4-1 2zm47 0-1 2zm2 1-1 2zm3 2 8 9h-2l-3.5-3.5q2.3-1.2-.5-2.5-1.7 2.7-3.5-1.5zm-114 2 .5 4.5h-1zm-394 3 .5 2.5h-1zm251 1 .5 9.5h-1zm193 2-1 2zm-81 2 .5 2.5h-1zm154 0 1 2zm-122 2 .5 4.5h-1zm-339 2 .5 2.5h-1zm-57 1 .5 5.5h-1zm365 4 .5 4.5h-1zm124 0 1 2zm-57 1 2.5.5-2.5.5zm60 1 4 5zm-434 1 .5 6.5h-1zm339 2 .5 4.5h-1zm18 0-2 3zm-15 5 2.5.5-2.5.5zm5 1 3.5.5-3.5.5zm94 1 .5 2.5h-1zm-684 1 .5 15.5h-1zm711 0 1.5 3.5-2 .5zm-468 2 .5 2.5h-1zm472 2 2.5.5-2.5.5zm-199 2-1 2zm206 0 1 2zm-690 1 .5 6.5h-1zm210 3 .5 2.5h-1zm149 0 5 6zm37 1-4 5zm300 1 1 2zm-220 2-2 3zm172 2 2.5.5-2.5.5zm-176 3-1 2zm228 1 .5 3 2 .5-1.5.5q-2.5-1-1-4Zm-699 3 .5 4.5h-1zm519 0 2.5.5-2.5.5zm-358 1 1 2zm548 1 2.5.5-2.5.5zm-741 1 .5 5.5h-1zm195 1 1 2zm38 3-3 4zm301 0-7 8zm-333 3 1 2zm-168 3 .5 3.5h-1zm746 0 1 2zm-778 2 .5 7.5h-1zm782 1 3 4zm-258 2-.5 1.5-.5 1.5-.5-1.5zm265 5 3 4zm-756 1 .5 3.5h-1zm487 3 .5 2.5h-1zm-137 1 2.5.5-2.5.5zm-10 1 1.5.5-2.5 1.5zm14 0 2.5 1.5-1.5-.5zm335 0-1 2zm-721 2 .5 3.5h-1zm390 0 2 3zm328 2-3 4zm-685 2 .5 2.5h-1zm-32 4 .5 3.5h-1zm253 0 4.5.5-4.5.5zm110 0-2 3zm152 0 .5 2.5h-1zm244 0 2 3zm-495 3 6 7zm250 1 .5 2.5h-1zm250 1 1 2zm-731 1 .5 2.5h-1zm361 0 .5 2.5h-1zm-393 1 .5 6.5h-1zm353 2-2 3zm-81 2 1 2zm77 1-1 2zm131 0 .5 2.5h-1zm-205 1 1 2zm-242 1 .5 2.5h-1zm205 1 .5 2.5h-1zm106 0-1 2-3 1v-1zm-343 2 .5 4.5h-1zm799 1 .5 8.5h-1zm-413 1-1 2zm-94 2 2.5.5-2.5.5zm35 0 2.5.5-2.5.5zm-294 1 .5 2.5h-1zm263 0 3.5.5-3.5.5zm26 0 2.5.5-2.5.5zm-19 1 15.5.5-15.5.5zm78 2-6 7zm-380 1 .5 3.5h-1zm1 7 .5 4.5h-1zm246 0 2 3zm123 1-1 2zm133 3 .5 2.5h-1zm293 0 .5 2.5h-1zm-794 3 .5 4.5h-1zm500 1 .5 2.5h-1zm293 1 .5 2.5h-1zm-792 4 .5 4.5h-1zm33 4 .5 2.5h-1zm-32 3 .5 3.5h-1zm287 0 2.5.5-2.5.5zm34 0 2.5.5-2.5.5zm-27 1 5.5.5-5.5.5zm18 0 4.5.5-4.5.5zm-311 5 .5 3.5h-1zm33 3 .5 2.5h-1zm-32 3 .5 3.5h-1zm33 2 .5 2.5h-1zm-32 4 .5 2.5h-1zm1 5 .5 2.5h-1zm33 1 .5 2.5h-1zm-31 8 .5 3.5h-1zm448 9 .5 2.5h-1zm-1 4 .5 2.5h-1zm-1 4 .5 2.5h-1zm324 3 .5 3.5h-1zm-325 1 .5 2.5h-1zm31 1 .5 2.5h-1zm-32 3 .5 2.5h-1zm329 0 2 3zm-57 2 1 2-2.5-.5zm63 4 1 2zm-67 1-2 3zm70 2 1 2zm2 3 1 2zm-344 5 .5 2.5h-1zm301 0 7.5.5-7.5.5zm-6 2 1.5.5-2.5 1.5zm21 1 1 2zm-317 1 .5 2.5h-1zm-388 2 1 2zm-36 1 2.5 5.5h-1zm423 1 .5 2.5h-1zm-385 1 1 2zm709 0 1 2zm-36 1-.5 1.5-.5 1.5-.5-1.5zm-671 2 2 3zm382 0 .5 2.5h-1zm-419 2 1 2zm774 1 .5 4.5h-1zm-356 1 .5 2.5h-1zm287 0 .5 8.5h-1zm-662 3 4 5zm635 0 .5 2.5h-1zm-261 1 .5 2.5h-1zm-413 1 1 2zm745 0 .5 3.5h-1zm26 2 .5 15.5h-1zm-359 1 .5 2.5h-1zm261 1 .5 4.5h-1zm-669 2 1 2zm44 0 1 2zm363 1 .5 2.5h-1zm292 1 .5 2.5h-1zm-697 1 1 2zm46 0 1 2zm620 1-1 2zm30 2-1 2zm-693 1 1 2zm736 1 .5 3.5h-1zm-730 6 5 6zm676 1-1 2zm79 1 .5 2.5h-1zm-390 2 2.5.5-2.5.5zm-6 1 2.5.5-2.5.5zm-13 2 2.5.5-2.5.5zm408 1 .5 2.5h-1zm-422 1 2.5.5-2.5.5zm-321 1 1 2zm313 0 3.5.5-3.5.5zm-8 1 3.5.5-3.5.5zm-211 1 2.5.5-2.5.5zm203 0 2.5.5-2.5.5zm-293 1 1 2zm97 0 2.5.5-2.5.5zm185 0 3.5.5-3.5.5zm351 0 .5 2.5h-1zm-527 1 3.5.5-3.5.5zm163 0 4.5.5-4.5.5zm-152 1 4.5.5-4.5.5zm139 0 5.5.5-5.5.5zm402 0 1.5 2.5-2-1zm-654 1 1 2zm126 0 6.5.5-6.5.5zm107 0 7.5.5-7.5.5zm-91 1 15.5.5-15.5.5zm64 0 10.5.5-10.5.5zm450 2 1 2zm4 4 .5 2.5h-1zm-645 2 2.5 1.5-1.5-.5zm614 2 .5 2.5h-1zm28 1-2.5 3.5-.5 1.5-.5-1.5zm-296 6 2.5.5-2.5.5zm5 0 .5 2.5h-1zm262 0 .5 6.5h-1zm25 0 .5 6.5h-1zm-608 1-1 2-1.5-.5zm320 4 .5 2.5h-1zm-296 3 3.5.5-3.5.5zm625 0-6 7zm-619 1 2.5.5-2.5.5zm213 0 2.5.5-2.5.5zm436 0-1 2zm-446 1 2.5.5-2.5.5zm-4 2 2.5.5-2.5.5zm89 1 .5 2.5h-1zm294 1 2 3zm-502 2h43l1.5 1.5-.5 7.5-.5-8h-43.5zm565 0-1 2zm-450 1 .5 3.5h-1zm92 0 .5 2.5q-1.5 3-3 0l.5-1.5 1 2zm299 0 4.5 2.5-1.5.5zm16 2 2.5.5-2.5.5zm41 0-1 2zm-50 1 7.5.5-7.5.5zm47 3-1 2zm-444 1 .5 3.5h-1zm364 2 1 2zm3 4 4 5zm-438 3 .5 5.5h-1zm72 0 .5 12.5h-1zm433 0-1 2zm-560 1-1 2zm557 1-1 2zm-561 5-1 2zm-3 4-1 2zm257 3-1 2zm-260 1-2 3zm136 1 .5 2.5h-1zm-204 2 .5 4.5h-1zm334 2 1 2zm-78 2 1 2zm39.5 0q4.1-1.7 3 2.5l3 5-2-1-2.5-5.5-1.5.5zm41.5 0 1 2zm-135 1 .5 1.5-2 1zm56 2 6 7zm88 1 2.5.5-2.5.5zm-206 1 2 3zm154 0-1 2zm57 0 2.5.5-2.5.5zm-296 1-1 2zm302 0 2.5.5-2.5.5zm5 1 2.5.5-2.5.5zm-164 1-3 4zm170 0 2.5.5-2.5.5zm-317 1-1 2zm239 0-1 2zm84 0 2.5.5-2.5.5zm5 1 2.5.5-2.5.5zm-233 1 1 2zm157 0 1 2zm82 0 2.5.5-2.5.5zm6 1 2.5.5-2.5.5zm-384 1 1 2zm267 0 7.5.5-7.5.5zm123 0 2.5.5-2.5.5zm11 2 2.5.5-2.5.5zm-101 1 3 4zm-293 1 2.5.5-2.5.5zm18 0 2.5.5-2.5.5zm-13 1 10.5.5-10.5.5zm143 0 16.5.5-16.5.5zm263 0 2.5.5-2.5.5zm11 2 2.5.5-2.5.5zm6 1 2.5.5-2.5.5zm-128 1 1 2zm3 2 1 2zm142 0 2.5.5-2.5.5zm107 0-1 2zm-96 2 2.5.5-2.5.5zm23 4 2.5.5-2.5.5zm66 1-1 2zm-222 2 2.5.5-2.5.5zm4 1 2.5.5-2.5.5zm5 1 2.5.5-2.5.5zm5 1 3.5.5-3.5.5zm6 1 2.5.5-2.5.5zm176 0 3.5.5-3.5.5zm11 0 2.5.5-2.5.5zm-182 1 3.5.5-3.5.5zm6 1 3.5.5-3.5.5zm6 1 2.5.5-2.5.5zm5 1 3.5.5-3.5.5zm6 1 3.5.5-3.5.5zm206 0-1 2zm-201 1 3.5.5-3.5.5zm6 1 2.5.5-2.5.5zm6 1 2.5.5-2.5.5zm6 1 2.5.5-2.5.5zm180 0-7 8zm-175 1 3.5.5-3.5.5zm6 1 3.5.5-3.5.5zm6 1 3.5.5-3.5.5zm5 1 3.5.5-3.5.5zm6 1 2.5.5-2.5.5zm5 1 3.5.5-3.5.5zm6 1 3.5.5-3.5.5zm6 1 2.5.5-2.5.5zm5 1 3.5.5-3.5.5zm120 0-1 2zm-114 1 3.5.5-3.5.5zm5 1 3.5.5-3.5.5zm6 1 2.5.5-2.5.5zm6 1 2.5.5-2.5.5zm6 1 2.5.5-2.5.5zm6 1 3.5.5-3.5.5zm75 0 1.5.5-2.5 1.5zm-70 1 3.5.5-3.5.5zm6 1 2.5.5-2.5.5zm6 1 2.5.5-2.5.5zm6 1 2.5.5-2.5.5zm6 1 3.5.5-3.5.5zm32 0 2.5.5-2.5.5zm-26 1 5.5.5-5.5.5zm19 0 4.5.5-4.5.5z" opacity=".965"/><path fill="#fcfaf7" stroke="#fcfaf7" d="m273.5 1 6.5.5-6.5.5zm699 0 10.5.5-8.5 1.5zm-227 188q8.3-1.2 13 1l8.5 6.5 4 7v27l-1 1v29l-1 1-1 46-2 6-4 5.5-10.5 5h-7l-7-3-5.5-4.5-3-4-2-7v-10l1-1v-24l1-1 1-62 2-8 5.5-6.5zm4.5 1-10 3-8 10-1 38-1 1v42l-1 1v23l3 7q4 5 12 7 11 1 17-4l6-10v-31l1-1v-26l1-1v-46l-2-4q-5-9-17-9Zm152.5 61q12.6-1.6 17.5 4.5-.7 2.3 1.5 1.5l3.5 3.5 3 7v7l-1.5 2.5-.5-11.5-8.5-10.5q-4.5-4.1-14-3l-11.5 6.5-8 10.5q-2.7-1.1-2 1.5l-3 1.5v1.5L853.5 301q-2.2-.7-1.5 1.5l-12 12v1.5l-4 2.5-11 12-3 8v7q2.1 8.4 8.5 12.5 5 4 16 2 9.3-2.7 13.5-10.5l2-3 3-1.5v-1.5l37.5-39.5q2.3.8 1.5-1.5l12-12V289h2q-1.1-2.7 1.5-2l6-9 .5 2.5-2 4.5-5 3.5-18.5 20.5-2.5 1.5-16 17v1.5h-2q1.1 2.7-1.5 2l-5 6q-2.2-.7-1.5 1.5L857.5 354q-2.2-.7-1.5 1.5l-7.5 5.5-12 1q-8-2.5-12.5-8.5l-4-8v-5l5-12.5q2.7 1.1 2-1.5l5-6.5 5-3.5 2.5-3.5 2.5-1.5 12.5-14.5 3.5-2.5 2.5-3.5q2.3.8 1.5-1.5l2-3.5 5-3.5 2.5-3.5 2.5-1.5 17-20.5 5.5-4zm349 14 1.5 7.5h-1zm1 10 1.5 6.5-2-1zm-676 78h47l1 1 34 1 1 1 17 1 11 2 4 2 10 1 20 7 12 6q17 8.5 29.5 21.5-.7 2.3 1.5 1.5l10.5 13q3.7 1.4 2-4.5l-1.5-2.5 6.5 5.5 6.5 9.5 2.5 1.5 1 5 3.5 3.5h1.5v-5.5l1.5-.5 6.5 7.5 3 14-2 3-1 8 6 8 2 16q3.8.8 3 6l-2 3q3.5.5 3 5-2.2 1.3-1 6l-2 2v6.5h2v-5.5l1.5-.5 1.5 1.5 1 9.5 2 .5v9l3 6-1 1v6.5l4 2.5v7l-2 8 2 3 1.5 12.5 5-13q4.8.8 5.5-2.5l1.5-2.5 4.5 2.5q-.8 2.6 2.5 1.5l7 6 6.5 2.5 2.5 5.5h2.5l.5 2h6.5q-1.1-2.7 1.5-2l3 2 1.5-.5-4 5q-8.1 5.4-11 16h1l2-5 9.5-9.5 3-2q11.6-10.4 35-9l3.5 1.5-6.5.5q-1.5-2.5-7-1-1.7 2.8-8 1l-12 5-13.5 11.5-7.5 12.5-12-1q-9.9 2.1-14.5 9.5.6 2.8-5.5 1.5-1.2-2.3-6-1l-1.5-1.5-2-29-1-1v-8l-1-1v-7l-3-14-1-13-7-35-4-12v-4l-5-17-10-25q-9.2-19.5-22-34.5-2.7 1.1-2-1.5-13.9-15.1-32.5-25.5l-22-10q-10-1-17-5l-29-5h-12l-1-1h-10l-1-1-81.5-.5 14.5-.5zM777 411l2 6 6 8q-1 2 2 1l-5-12-3-1q1-3-2-2Zm14 20-1 4h1zm19 52-1 4 3 8h1zm6 29-1 3h1zm5 29-1 3h1zm0 6q2 5 2 14l1-5-1-3q2-7-2-6Zm4 16v21h1v-16zm34 29q-2 3-8 1l-1 2 3-1 10 2 1-3zm-26 1-2 3 2 3 1-2q3-2-1-4Zm12 2q-2 3-5 2l-4 6q-2-2-6-1-3-1-2-6l-1 8 9 2q2 1 1-1 3-8 12-9zM538.5 355l20.5.5-29.5 1.5-1 1h-10l-10 2h-11l-1 1-26 2-7 2h-7l-1 1-32 4-6 2h-6l-47 10-23 7-27 12q-20.6 11.4-35.5 28.5l-12 16-10 19-9 28-5 29v9l-1 1v18l-1 1v60l1 1v23l1 1v11l2 11v12l1 1 1 18 1 1 4 34h-1l-3-24-1-1v-9l-3-16-1-21-2-11-2-79 1-1v-14q.6-7.6-4-10l2-2 .5-19.5 1.5 1.5.5 12.5 2.5-19.5h-1q1.1 3.3-1.5 2.5-3.2-1.7-1.5-8.5l1-3.5q3.5-1.1 2 6.5l2-1q-.8-5.3 2-7v-6l6-21.5-3 1.5q1.7 5.9-2 4.5v-4.5l2-2q-1.2-5.2 1.5-6.5 2.8.6 1.5-5.5l3.5-5.5q2.6.8 1.5-2.5l3.5-4.5.5 2.5-4 5-3 10.5q-3.5-1.1-2 6.5h1q12.4-34.1 37.5-55.5l13-10 22-12h3l9-5h3l12-5 22-6 11-1 12-4 13-1 8-3 28-3 4-2h7l8-2h10l14-3 20-1 1-1h15l1-1h11zm-118 10 3.5.5-3.5.5zm532 26h12l8.5 5 4 5.5 3 8-2 9-3 5.5q-2.7-1.1-2 1.5l-4.5 3.5-9 3h-8l-6 2-16 1-5 2q-9-1-14 2l-24 2v-1l13-1 13-3h7l7-2h8l12-3h8l11-2 9.5-7.5 3-13-1-4-5-7.5-4.5-3-10-2-7 2h-8l-13 3h-7l-6 2h-8l-1 1-29 4v-1l6-2h9l7-2h7l5-2 13-1zm-77 13 1.5.5-5 2.5v2q-2.7-1.1-2 1.5l-3 4-1 11q1.6 8.9 8.5 12.5l7.5 2.5-4.5.5-10.5-8.5-3-7v-5q1.5-9.5 7.5-14.5zm-84 6q4.5 2 1 4-3.5.8-1-4ZM274 427l2 .5-4 3q-.7-2.6 2-1.5z" opacity=".067"/><path fill="#fcfaf7" stroke="#fcfaf7" d="m267 436 2 .5-2 1zm-1.5 2 .5 3.5-2 3.5q-3 1.3-2-2.5zm-20 42 1.5.5v6.5l-2 .5v9l-3 1.5q-1.2-7 2-10.5v-6zm582 30 4.5 7.5v8q-2 4.5-4 1zm77 51 5.5.5-5.5.5zm16 7 8 2 2.5 2.5-1.5.5-2-2-7-2zm12 5q8.8 3.7 13.5 11.5l7 11v4l3 6q-1.2 4.7 1 6l-3 .5-2-14.5-11-17.5q-7-2.5-8.5-7Zm27 32 .5 2.5h-1zm-1 7h4l10.5 8.5 4.5 10.5q5.7-.7 8 2h8l19 5q12.6 5.4 21.5 14.5 7.6 7.9 12 19v3l3 6 1 18-1 1v9l-2 3v6h1l1-6.5q2.7-1.1 2 1.5l1 1v18l1 3.5 4-2.5 1-9.5q4.1-1.7 3 2.5l4 8v4l2 2v9l-2 2-2 22-4 9 6 12V806q-6-2.2-4 4.5-4 2 0 4l1 8-1 1v19l-2 2v9l-1 1-1 13.5-5 3.5v5l-5 6q.1 5.6-3.5 7.5-4.2 1.3-2.5-3.5h-1l-3 6 2.5-1.5q3.8-1.2 2.5 2.5-2.8 2-2 6.5l-6 2.5v1.5q-3.7-1.5-3 1.5l-2 3.5q-2.7-1.1-2 1.5l-3 4.5-5-1v2q-3.8-1.5-3 1.5l-3 3 1 1-1 6 2 5-8.5 16.5-6 3-1.5-4q-5.5-1.2-7 2.5.5 4-2.5 4.5-2.6-.8-1.5 2.5-3.9 2.1-3 7.5-4.1 1.7-3-2.5h-1l-2 5-11.5 13.5-3 2-8 7-11 5-12 3-15 1-1-1-11-1-2 1-4-2-10-1-9-3-22-2-3-2h-8q-2.5 4.5-11 3-3-1.5 0-3 4.8.8 6.5-1.5l-6.5-1.5-5 3-6 1q-2.7-2.8-9-2l-13 3-20 1-5 2h-11l-7 2-28 1-10 2h-22l-1 1-29 1-1 1h-79l-3 1-3-1q-1.8 2.8-8 1l-3-1h-66l-15-3h-25q-9.5-4-25-2l-13-3h-16l-3-2h-16l-3-2-11-1-4-2h-8l-15-5h-6l-11-3-25-9-12.5-9.5V958l-2-.5v-8l7.5-9.5 8-5 8-2 10-5 18-5h5l9-3h5l13.5-3q5.5-17.2 15-31.5l-15-3 5.5-.5 10.5 2v2.5l-13 25-1 5-2.5 2.5-25 4-4 2-15 3q-17.8 4.9-31.5 13 1.1 2.7-1.5 2-5 3.5-4.5 12.5l6.5 7.5 14 7 23 7 50 10 26 2 17 3h10l10 2h16l1 1h10l1 1 30 1 1 1h23l1 1h114l3-1 49-1 1-1h14l11-2h18l10-2h12l8-2 33-3 11-4 7-1 77 14 23 1 18-5q11.3-5.2 19.5-13.5l2-3q8-7 12-18l8-26 2-11 1.5-1.5q25.2-4.3 37.5-21.5l10-16 8-22 4-21v-20l-4-17q-4.9-11.1-13.5-18.5l-5.5-4.5 16-66v-5l2-7v-14l-3-14-9-16.5q-2.7 1.1-2-1.5-8.2-9.3-20.5-14.5l-14-4-24.5-4q-.6-10.2-7.5-15l-9-4zm87.5 111-1 5h1zm-10 41-1 9h1zm-2 9-1 3h1zm0 6 1 1 9 9-5-9zm11 10-1 2 2 1zm8 13-1 3h1zm3 18v17l1-4zm-20 74-6 8-3 4h2v-2q3 1 2-1l3-2 2-3zm-17 18-2 2h2zm-34 45-2 3q-1 2 2 1z" opacity=".067"/><path fill="#fcfaf7" stroke="#fcfaf7" d="m1052.5 702 .5 4.5h-1zm-800 23 4.5 26.5h-1l-4-20zm5 28q5.2 29.8 16.5 53.5h-1l-9-21v-4l-5-14zm17 55q11.6 25.4 32 42 21.9 18.1 53.5 26.5l-3.5.5q-37.8-11.2-61.5-36.5.8-2.2-1.5-1.5L279 819.5l-5-10zm87 69 19.5 4.5-5.5.5-12-3zM980 967q3.3-1.1 2 3-3.3 1.1-2-3Zm272.5 11 .5 4.5h-1zm-383 15 2.5.5-2.5.5zm285 172-.5 1.5q.7 2.6-2 1.5-1.1-2.7 1.5-2z" opacity=".067"/><path fill="#fcfaf7" stroke="#fcfaf7" d="m1158.5 1166-3.5 4.5-3.5 4.5h-1.5v-3q-2.7 1.1-2-1.5l3-2q-1.2 3.8 2.5 2.5zm-15 7 2.5.5-2 4.5 3.5-2-3 4-.5-2h-3q1.3 3-2.5 2l-2 1zm-81 9q12.5-2 16.5 4.5l2.5 5.5 15 1q2-5 11-3 2.9 4.1 11 3l3.5-1q-1.7 4.1 2.5 3l3-2-1 2-4.5 2q1.1-2.7-1.5-2l-1.5 3 2 .5-25.5 15.5-3.5-1q1.5 3.7-1.5 3l-3.5-1 1 4-5-2 1 3.5-2.5.5-3.5-1q1.7 4.1-2.5 3l-2.5-1-1.5 4h-1.5v-4q3 1 2-2l-12.5 1-7.5 2-.5 2-2-1-4 4h-4l-4 3-11 1-7.5-2-.5-2-11.5 5.5q-1.7 4.8 2.5 3.5l1 2-7-2-4.5 5.5 4.5 1.5 6-3h8l2-2h8l4-2 2 1 6-4h2.5v4h-1.5l-16 6-5-1-4 3h-4l-8 3-4-1-5 3-25 3v-1l7-3 5 2 1.5-3h-7.5l-.5-2q4.1 1.7 3-2.5-2.3-1.2-1-6v-9l-3-6q2.3-1.3 1-6l5.5-5.5 10-5 11-2 7-4 9-2 13-9 14-3 2-2zm48.5 13-2 2 3 1 1-2zm6 3q0 4 2 1zm-5 2q-1 4 2 3 1-4-2-3Zm-7 5q-1 3 2 2 1-3-2-2Zm27.5-22q2.3-.7 1.5 1.5l-1 3 1 2-5 2.5q1.3-3-2.5-2l2.5-3.5q-1.2-3.7 2.5-2.5zm-9 7q2.3-.7 1.5 1.5z" opacity=".067"/><path fill="#fcfaf7" stroke="#fcfaf7" d="M1063 1225h5v3q-3.8 1-5-1.5zm-10.5 5 3.5 1.5-2.5 1.5-2.5-1.5z" opacity=".067"/></svg>